<svg width="151" height="118" viewBox="0 0 151 118" fill="none" xmlns="http://www.w3.org/2000/svg">
<g clip-path="url(#clip0_18_582)" filter="url(#filter0_d_18_582)">
<path d="M129.939 107.096L127.567 107.096L126.439 96.9762L129.939 96.9764L129.939 107.096Z" fill="#FFB8B8"/>
<path d="M130.543 109.639L122.897 109.639V109.532C122.897 108.659 123.21 107.821 123.768 107.204C124.327 106.586 125.084 106.239 125.873 106.239H125.873L130.544 106.24L130.543 109.639Z" fill="#2F2E41"/>
<path d="M140.405 100.646L138.866 102.642L131.175 97.0224L133.447 94.0769L140.405 100.646Z" fill="#FFB8B8"/>
<path d="M142.547 101.788L137.583 108.223L137.51 108.154C136.909 107.587 136.537 106.779 136.475 105.909C136.412 105.038 136.665 104.176 137.177 103.511L137.178 103.511L140.209 99.5808L142.547 101.788Z" fill="#2F2E41"/>
<path d="M113.1 57.3284L112.362 64.8604L142.204 64.3895L129.189 40.9296L118.563 40.5074L113.1 57.3284Z" fill="#2F2E41"/>
<path opacity="0.28" d="M113.1 57.3284L112.362 64.8604L142.204 64.3895L129.189 40.9296L118.563 40.5074L113.1 57.3284Z" fill="black"/>
<path d="M118.968 58.6214L117.914 65.5132V71.6733L126.409 74.7407C126.409 74.7407 125.414 98.668 126.74 100.192L126.707 103.871L130.413 104.057L130.443 101.468L132.014 82.1154L132.939 67.9066L131.439 57.134L118.968 58.6214Z" fill="#2F2E41"/>
<path d="M125.549 64.5539L117.914 71.6733C117.914 71.6733 117.468 84.5183 118.602 86.0246C119.577 87.3185 132.252 98.4783 132.252 98.4783C132.252 98.4783 134.505 100.764 135.767 100.801C137.03 100.837 138.498 97.9079 138.498 97.9079L135.574 95.4503C135.574 95.4503 128 87.6284 125.751 84.5183C124.843 83.263 124.843 83.1374 124.843 83.1374L125.153 77.9172L128.273 68.229L125.549 64.5539Z" fill="#2F2E41"/>
<path d="M117.443 30.4517L114.152 30.1152L111.166 30.6656L104.844 30.6679L104.306 35.7372L110.075 37.1655L111.481 36.4032L117.342 38.8735L117.443 30.4517Z" fill="#2F2E41"/>
<path d="M121.375 30.4359C121.375 30.4359 128.36 29.7117 129.949 31.0926C131.538 32.4734 134.942 59.8391 134.942 59.8391L121.375 60.6861L118.943 58.8348L119.633 45.1728L121.375 30.4359Z" fill="#CCCCCC"/>
<path d="M123.507 30.2654L115.801 30.4525L108.617 66.3666L114.291 67.7476L123.507 30.2654Z" fill="#2F2E41"/>
<path d="M128.985 29.9618L135.055 32.0636L134.71 46.8195L142.204 64.4614L133.395 65.488L126.432 46.4381L128.985 29.9618Z" fill="#2F2E41"/>
<path d="M138.994 66.2534C139.207 66.0462 139.376 65.7898 139.49 65.5024C139.603 65.215 139.659 64.9036 139.652 64.59C139.645 64.2765 139.575 63.9685 139.449 63.6876C139.323 63.4068 139.143 63.16 138.921 62.9646L140.142 58.2518L137.734 56.7323L136.094 63.4146C135.822 63.8485 135.704 64.3778 135.761 64.902C135.818 65.4263 136.047 65.9091 136.404 66.2591C136.762 66.609 137.223 66.8017 137.7 66.8006C138.178 66.7996 138.638 66.6049 138.994 66.2534Z" fill="#FFB8B8"/>
<path d="M131.538 32.4734L135.129 32.1287C135.129 32.1287 138.354 35.8596 139.087 38.7484C139.821 41.6371 140.615 50.6753 140.615 50.6753L140.284 63.8973L136.085 60.7432L135.804 49.3706L131.538 32.4734Z" fill="#2F2E41"/>
<path d="M130.671 25.8277C132.02 23.0981 131.113 19.6758 128.646 18.1837C126.179 16.6916 123.085 17.6947 121.736 20.4243C120.388 23.1538 121.295 26.5762 123.762 28.0683C126.229 29.5604 129.322 28.5572 130.671 25.8277Z" fill="#FFB8B8"/>
<path d="M125.636 20.7745C124.968 20.6038 124.275 20.793 123.598 20.9157C122.922 21.0383 122.176 21.0788 121.604 20.6611C121.181 20.3527 120.921 19.8425 120.677 19.3517C120.575 19.1764 120.508 18.9797 120.478 18.7739C120.449 18.4109 120.658 18.0798 120.88 17.8102C121.909 16.5583 123.413 15.8731 124.931 15.6554C126.182 15.4491 127.46 15.6218 128.63 16.1551C129.781 16.714 130.771 17.7373 131.224 19.0353C131.433 19.6996 131.563 20.3909 131.612 21.0921C131.68 21.608 131.689 22.1314 131.638 22.6497C131.577 23.034 131.485 23.4116 131.365 23.7782L130.615 26.2838C130.561 26.5206 130.46 26.7412 130.32 26.9297C130.248 27.022 130.151 27.086 130.043 27.1121C129.935 27.1382 129.823 27.125 129.722 27.0745C129.782 26.8024 129.792 26.5195 129.749 26.2433C129.726 26.1057 129.666 25.9789 129.576 25.8795C129.487 25.78 129.373 25.7124 129.249 25.6852C128.973 25.6528 128.736 25.8899 128.474 25.992C128.354 26.0313 128.228 26.0442 128.104 26.0297C127.979 26.0153 127.859 25.9738 127.749 25.9078C127.639 25.8417 127.541 25.7523 127.463 25.6447C127.384 25.5371 127.325 25.4134 127.289 25.2806C127.282 25.2538 127.276 25.2268 127.271 25.1994C127.229 24.913 127.299 24.6063 127.201 24.3373C127.086 24.0221 126.781 23.857 126.552 23.6305C126.343 23.4171 126.193 23.1421 126.12 22.8379C126.048 22.5336 126.055 22.2128 126.142 21.913C126.203 21.7045 126.376 21.6097 126.342 21.3702C126.296 21.0559 125.877 20.8362 125.636 20.7745Z" fill="#2F2E41"/>
<path d="M69.0331 44.584H4.7561V0.0992279H69.0331V44.584Z" fill="white"/>
<path d="M69.0331 44.584H4.7561V0.0992279H69.0331V44.584ZM5.04961 44.2593H68.7396V0.423935H5.04961V44.2593Z" fill="#3F3D56"/>
<path d="M71.288 106.197H34.6002V61.7124H71.288V106.197Z" fill="white"/>
<path d="M71.288 106.197H34.6002V61.7124H71.288V106.197ZM34.8937 105.872H70.9945V62.0371H34.8937V105.872Z" fill="#3F3D56"/>
<path d="M66.2985 101.996H58.6674V102.338H66.2985V101.996Z" fill="#3F3D56"/>
<path d="M66.2985 103.022H58.6674V103.365H66.2985V103.022Z" fill="#3F3D56"/>
<path d="M66.2985 104.049H58.6674V104.391H66.2985V104.049Z" fill="#3F3D56"/>
<path d="M52.9442 69.6676V73.2394C54.8598 73.2394 56.7324 73.8678 58.3252 75.0453C59.9179 76.2227 61.1594 77.8962 61.8924 79.8541C62.6255 81.8121 62.8173 83.9666 62.4436 86.0452C62.0699 88.1237 61.1474 90.033 59.7929 91.5316L62.0758 94.0572C63.8819 92.0591 65.1118 89.5134 65.6101 86.742C66.1084 83.9706 65.8527 81.0979 64.8752 78.4873C63.8978 75.8767 62.2425 73.6453 60.1188 72.0754C57.9951 70.5055 55.4983 69.6676 52.9442 69.6676Z" fill="#E6E6E6"/>
<path d="M62.0758 94.0573L59.7929 91.5316C58.137 93.364 55.9369 94.4703 53.6002 94.6455C51.2635 94.8208 48.9486 94.0532 47.0842 92.4849L45.1301 95.3295C47.6163 97.42 50.703 98.443 53.8186 98.2091C56.9342 97.9752 59.8677 96.5002 62.0758 94.0573Z" fill="#575A89"/>
<path d="M43.2586 83.9547C43.2586 82.5476 43.5091 81.1542 43.9959 79.8541C44.4826 78.5541 45.196 77.3728 46.0954 76.3778C46.9948 75.3828 48.0625 74.5936 49.2376 74.0551C50.4128 73.5166 51.6722 73.2394 52.9442 73.2394V69.6676C50.2407 69.6676 47.6055 70.6062 45.4098 72.3511C43.2142 74.096 41.5689 76.5592 40.7058 79.3935C39.8428 82.2279 39.8055 85.2904 40.5992 88.1494C41.393 91.0084 42.9778 93.5198 45.1301 95.3294L47.0843 92.4849C45.8944 91.4865 44.9299 90.1967 44.2661 88.7167C43.6024 87.2368 43.2575 85.6068 43.2586 83.9547Z" fill="#008EDD"/>
<path d="M115.48 78.5971H78.792V34.1122H115.48V78.5971Z" fill="white"/>
<path d="M115.48 78.5971H78.792V34.1122H115.48V78.5971ZM79.0855 78.2724H115.186V34.4369H79.0855V78.2724Z" fill="#3F3D56"/>
<path d="M90.6788 61.3064H84.075V72.9959H90.6788V61.3064Z" fill="#575A89"/>
<path d="M100.218 53.3511H93.6139V72.9959H100.218V53.3511Z" fill="#E6E6E6"/>
<path d="M109.757 44.097H103.153V72.9959H109.757V44.097Z" fill="#008EDD"/>
<path d="M111.958 73.3207H82.3141V39.3887H82.6075V72.9959H111.958V73.3207Z" fill="#3F3D56"/>
<path d="M104.811 35.2966C105.927 35.2966 106.832 34.2954 106.832 33.0605C106.832 31.8255 105.927 30.8243 104.811 30.8243C103.694 30.8243 102.79 31.8255 102.79 33.0605C102.79 34.2954 103.694 35.2966 104.811 35.2966Z" fill="#FFB8B8"/>
<path d="M146.341 109.855H114.844C114.799 109.855 114.756 109.836 114.725 109.801C114.693 109.766 114.675 109.718 114.675 109.669C114.675 109.62 114.693 109.572 114.725 109.537C114.756 109.502 114.799 109.483 114.844 109.483H146.341C146.386 109.483 146.429 109.502 146.46 109.537C146.492 109.572 146.51 109.62 146.51 109.669C146.51 109.718 146.492 109.766 146.46 109.801C146.429 109.836 146.386 109.855 146.341 109.855Z" fill="#CCCCCC"/>
<path d="M60.1065 35.2806H13.6826C13.6441 35.2806 13.6072 35.2636 13.5799 35.2335C13.5527 35.2033 13.5374 35.1624 13.5374 35.1198V10.5032C13.5374 10.4605 13.5527 10.4197 13.5799 10.3895C13.6072 10.3594 13.6441 10.3424 13.6826 10.3424C13.7212 10.3424 13.7581 10.3594 13.7854 10.3895C13.8126 10.4197 13.8279 10.4605 13.8279 10.5032V34.9591H60.1065C60.1256 34.959 60.1446 34.9631 60.1623 34.9712C60.18 34.9792 60.196 34.991 60.2096 35.006C60.2231 35.0209 60.2339 35.0386 60.2412 35.0582C60.2485 35.0777 60.2523 35.0987 60.2523 35.1198C60.2523 35.141 60.2485 35.1619 60.2412 35.1815C60.2339 35.201 60.2231 35.2187 60.2096 35.2337C60.196 35.2486 60.18 35.2604 60.1623 35.2685C60.1446 35.2765 60.1256 35.2806 60.1065 35.2806Z" fill="#3F3D56"/>
<path d="M23.6014 33.5125H19.379C19.2646 33.5124 19.155 33.462 19.0742 33.3726C18.9933 33.2832 18.9478 33.1619 18.9477 33.0354V26.5959C18.9478 26.4694 18.9933 26.3482 19.0742 26.2587C19.155 26.1693 19.2646 26.119 19.379 26.1188H23.6014C23.7157 26.119 23.8254 26.1693 23.9062 26.2587C23.9871 26.3482 24.0326 26.4694 24.0327 26.5959V33.0354C24.0326 33.1619 23.9871 33.2832 23.9062 33.3726C23.8254 33.462 23.7157 33.5124 23.6014 33.5125Z" fill="#008EDD"/>
<path d="M31.3015 33.5125H27.0791C26.9648 33.5124 26.8551 33.462 26.7743 33.3726C26.6934 33.2832 26.648 33.1619 26.6478 33.0354V20.4881C26.648 20.3616 26.6934 20.2403 26.7743 20.1509C26.8551 20.0615 26.9648 20.0112 27.0791 20.011H31.3015C31.4159 20.0112 31.5255 20.0615 31.6063 20.1509C31.6872 20.2403 31.7327 20.3616 31.7328 20.4881V33.0354C31.7327 33.1619 31.6872 33.2832 31.6063 33.3726C31.5255 33.462 31.4159 33.5124 31.3015 33.5125Z" fill="#008EDD"/>
<path d="M39.0017 33.5125H34.7792C34.6649 33.5124 34.5553 33.462 34.4744 33.3726C34.3936 33.2832 34.3481 33.1619 34.348 33.0354V26.5959C34.3481 26.4694 34.3936 26.3482 34.4744 26.2587C34.5553 26.1693 34.6649 26.119 34.7792 26.1188H39.0017C39.116 26.119 39.2256 26.1693 39.3065 26.2587C39.3873 26.3482 39.4328 26.4694 39.433 26.5959V33.0354C39.4328 33.1619 39.3873 33.2832 39.3065 33.3726C39.2256 33.462 39.116 33.5124 39.0017 33.5125Z" fill="#008EDD"/>
<path d="M46.7018 33.5125H42.4794C42.3676 33.5152 42.2595 33.4687 42.1787 33.3833C42.0978 33.298 42.0509 33.1806 42.0481 33.057V18.0555C42.0509 17.9319 42.0978 17.8146 42.1787 17.7292C42.2595 17.6438 42.3676 17.5974 42.4794 17.6H46.7018C46.8135 17.5974 46.9217 17.6438 47.0025 17.7292C47.0834 17.8146 47.1303 17.9319 47.1331 18.0555V33.057C47.1303 33.1806 47.0834 33.298 47.0025 33.3833C46.9217 33.4687 46.8135 33.5152 46.7018 33.5125Z" fill="#008EDD"/>
<path d="M54.4019 33.5125H50.1795C50.0652 33.5124 49.9556 33.462 49.8747 33.3726C49.7938 33.2832 49.7484 33.1619 49.7482 33.0354V13.7374C49.7484 13.6109 49.7938 13.4896 49.8747 13.4002C49.9556 13.3107 50.0652 13.2604 50.1795 13.2603H54.4019C54.5163 13.2604 54.6259 13.3107 54.7068 13.4002C54.7876 13.4896 54.8331 13.6109 54.8332 13.7374V33.0354C54.8331 33.1619 54.7876 33.2832 54.7068 33.3726C54.6259 33.462 54.5163 33.5124 54.4019 33.5125Z" fill="#008EDD"/>
<path d="M21.4902 24.19C21.9716 24.19 22.3619 23.7583 22.3619 23.2257C22.3619 22.693 21.9716 22.2613 21.4902 22.2613C21.0087 22.2613 20.6185 22.693 20.6185 23.2257C20.6185 23.7583 21.0087 24.19 21.4902 24.19Z" fill="#3F3D56"/>
<path d="M29.1903 17.9215C29.6718 17.9215 30.062 17.4897 30.062 16.9571C30.062 16.4245 29.6718 15.9927 29.1903 15.9927C28.7089 15.9927 28.3186 16.4245 28.3186 16.9571C28.3186 17.4897 28.7089 17.9215 29.1903 17.9215Z" fill="#3F3D56"/>
<path d="M36.8905 24.19C37.3719 24.19 37.7622 23.7583 37.7622 23.2257C37.7622 22.693 37.3719 22.2613 36.8905 22.2613C36.409 22.2613 36.0187 22.693 36.0187 23.2257C36.0187 23.7583 36.409 24.19 36.8905 24.19Z" fill="#3F3D56"/>
<path d="M44.5906 14.8676C45.072 14.8676 45.4623 14.4358 45.4623 13.9032C45.4623 13.3706 45.072 12.9388 44.5906 12.9388C44.1092 12.9388 43.7189 13.3706 43.7189 13.9032C43.7189 14.4358 44.1092 14.8676 44.5906 14.8676Z" fill="#3F3D56"/>
<path d="M52.2907 11.3315C52.7722 11.3315 53.1624 10.8997 53.1624 10.3671C53.1624 9.83447 52.7722 9.40269 52.2907 9.40269C51.8093 9.40269 51.419 9.83447 51.419 10.3671C51.419 10.8997 51.8093 11.3315 52.2907 11.3315Z" fill="#3F3D56"/>
<path d="M36.9087 23.4417L29.1904 17.0458L21.5772 23.3543L21.4031 23.097L29.1904 16.6441L36.872 23.0096L44.5057 13.7679L44.5363 13.7541L52.2364 10.3216L52.345 10.62L44.6755 14.0386L36.9087 23.4417Z" fill="#3F3D56"/>
<path d="M17.6084 103.709C17.5807 103.782 17.5496 103.853 17.5151 103.922C17.3343 104.292 17.0788 104.61 16.7685 104.852C16.4011 105.138 15.9697 105.307 15.5214 105.34C15.0732 105.373 14.6253 105.27 14.2265 105.041C13.8277 104.812 13.4935 104.466 13.2602 104.041C13.0269 103.617 12.9035 103.129 12.9036 102.632V102.194H13.2396C14.5449 103.128 16.055 103.651 17.6084 103.709Z" fill="#3F3D56"/>
<path d="M22.4029 102.322V102.632C22.4031 103.235 22.2216 103.821 21.8872 104.297C21.5528 104.774 21.0845 105.113 20.5563 105.262C20.0281 105.411 19.4701 105.361 18.9704 105.12C18.4707 104.879 18.0579 104.461 17.7971 103.931C17.7612 103.86 17.7287 103.787 17.6999 103.712C17.7716 103.715 17.8423 103.716 17.9141 103.716C19.4978 103.718 21.0512 103.236 22.4029 102.322Z" fill="#3F3D56"/>
<path d="M25.7077 69.5656C25.634 69.5536 25.5594 69.546 25.4847 69.5406C26.3332 71.7038 26.392 74.1463 25.6488 76.3565C25.7234 76.3467 25.7971 76.3337 25.8708 76.3184C26.5903 76.1642 27.237 75.7325 27.6957 75.1002C28.1545 74.4679 28.3955 73.676 28.3759 72.8655C28.3563 72.055 28.0774 71.2785 27.5888 70.6742C27.1002 70.0699 26.4336 69.6771 25.7077 69.5656Z" fill="#3F3D56"/>
<path d="M10.3434 69.5406C10.2687 69.546 10.194 69.5536 10.1203 69.5656C9.39444 69.6771 8.72785 70.0699 8.23925 70.6742C7.75065 71.2785 7.47173 72.055 7.45215 72.8655C7.43258 73.676 7.67362 74.4679 8.13235 75.1002C8.59109 75.7325 9.23776 76.1642 9.95724 76.3184C10.0309 76.3337 10.1046 76.3467 10.1792 76.3565C9.43613 74.1463 9.49493 71.7038 10.3434 69.5406Z" fill="#3F3D56"/>
<path d="M25.7077 69.5656C24.8984 67.4268 23.3993 65.6971 21.5017 64.7127C19.6041 63.7283 17.4435 63.5594 15.4397 64.2388C13.4358 64.9182 11.7317 66.3974 10.6586 68.389C9.58538 70.3807 9.21968 72.7425 9.63252 75.0158C10.0454 77.289 11.2073 79.3114 12.8925 80.6899C14.5777 82.0684 16.6659 82.7046 18.7515 82.4751C20.837 82.2455 22.771 81.1664 24.1777 79.4476C25.5843 77.7287 26.3632 75.4927 26.363 73.1741C26.3626 71.9351 26.1399 70.7086 25.7077 69.5656ZM25.6488 76.3565C24.9302 78.4936 23.5144 80.2558 21.6803 81.2962C19.8462 82.3365 17.7266 82.5797 15.7385 81.9778C13.7505 81.3759 12.0381 79.9726 10.9384 78.044C9.83864 76.1155 9.43123 73.8013 9.79634 71.5571C10.1614 69.3129 11.2726 67.3012 12.9112 65.9179C14.5497 64.5346 16.5969 63.8799 18.6499 64.0826C20.7029 64.2854 22.6129 65.331 24.004 67.0135C25.3951 68.6961 26.1666 70.8938 26.1666 73.1741C26.1662 74.2605 25.9909 75.3381 25.6488 76.3565Z" fill="#3F3D56"/>
<path d="M22.2368 71.0546H13.5913C13.1353 71.0546 12.698 71.255 12.3756 71.6117C12.0531 71.9684 11.872 72.4522 11.872 72.9567C11.872 73.4611 12.0531 73.9449 12.3756 74.3016C12.698 74.6583 13.1353 74.8587 13.5913 74.8587H22.2368C22.6927 74.8587 23.13 74.6583 23.4525 74.3016C23.7749 73.9449 23.956 73.4611 23.956 72.9567C23.956 72.4522 23.7749 71.9684 23.4525 71.6117C23.13 71.255 22.6927 71.0546 22.2368 71.0546Z" fill="#3F3D56"/>
<path d="M25.6488 89.4166C25.6173 89.3525 25.5849 89.2894 25.5515 89.2275C25.5506 89.2253 25.5495 89.2242 25.5486 89.222C24.7756 87.7581 23.6717 86.5417 22.3455 85.6922C21.0192 84.8426 19.5161 84.3892 17.9836 84.3765C16.4511 84.3637 14.942 84.792 13.6043 85.6193C12.2666 86.4465 11.1463 87.6444 10.3534 89.0953C9.56054 90.5462 9.12228 92.2003 9.08166 93.8951C9.04104 95.59 9.39945 97.2674 10.1217 98.7627C10.844 100.258 11.9053 101.52 13.2015 102.424C14.4977 103.329 15.9842 103.845 17.5152 103.922C17.6085 103.928 17.7028 103.931 17.7971 103.931C17.8364 103.933 17.8747 103.933 17.914 103.933C19.4934 103.936 21.0442 103.467 22.4028 102.576C23.8785 101.609 25.0705 100.192 25.8354 98.4943C25.8364 98.4922 25.8374 98.4911 25.8384 98.4889C25.8679 98.4237 25.8964 98.3574 25.9249 98.29C26.5157 96.892 26.7988 95.359 26.7508 93.8166C26.7028 92.2742 26.3252 90.7664 25.6488 89.4166ZM25.7333 98.2302C25.7048 98.2976 25.6753 98.3639 25.6449 98.4291C24.9141 100.036 23.791 101.385 22.4028 102.322C21.0512 103.236 19.4978 103.718 17.914 103.716C17.8423 103.716 17.7716 103.715 17.6998 103.712C17.6694 103.712 17.6389 103.711 17.6085 103.709C16.1084 103.651 14.6479 103.162 13.3706 102.29C12.0932 101.418 11.0431 100.193 10.3235 98.7361C9.60394 97.2788 9.23969 95.6394 9.26661 93.9792C9.29354 92.3189 9.71072 90.695 10.4771 89.2673C11.2435 87.8395 12.3326 86.6571 13.6374 85.8364C14.9422 85.0156 16.4177 84.5849 17.9186 84.5864C19.4196 84.588 20.8943 85.0219 22.1977 85.8454C23.501 86.6688 24.5882 87.8535 25.3521 89.2829C25.3531 89.2851 25.3541 89.2862 25.355 89.2883C25.3894 89.3503 25.4228 89.4133 25.4543 89.4764C26.1285 90.8051 26.5056 92.293 26.5542 93.8158C26.6027 95.3387 26.3212 96.8522 25.7333 98.2302Z" fill="#3F3D56"/>
<path d="M24.7096 89.7057C24.5375 89.57 24.3315 89.4967 24.1201 89.4959H20.2562C19.987 89.4959 19.7289 89.6142 19.5386 89.8248C19.3482 90.0354 19.2413 90.3209 19.2413 90.6187C19.2413 90.9165 19.3482 91.2021 19.5386 91.4126C19.7289 91.6232 19.987 91.7415 20.2562 91.7415H24.1201C24.1891 91.7417 24.2579 91.734 24.3255 91.7186C24.3927 91.7026 24.4585 91.6796 24.5219 91.6502C24.6871 91.5714 24.8304 91.4455 24.9372 91.2853C25.0439 91.1252 25.1102 90.9365 25.1293 90.7386C25.1484 90.5407 25.1196 90.3408 25.0458 90.1593C24.9721 89.9778 24.8561 89.8212 24.7096 89.7057Z" fill="#3F3D56"/>
<path d="M20.5134 91.1887C20.798 91.1887 21.0286 90.9335 21.0286 90.6187C21.0286 90.3039 20.798 90.0486 20.5134 90.0486C20.2288 90.0486 19.9982 90.3039 19.9982 90.6187C19.9982 90.9335 20.2288 91.1887 20.5134 91.1887Z" fill="#F1F1F1"/>
<path d="M22.188 91.1887C22.4725 91.1887 22.7032 90.9335 22.7032 90.6187C22.7032 90.3039 22.4725 90.0486 22.188 90.0486C21.9034 90.0486 21.6727 90.3039 21.6727 90.6187C21.6727 90.9335 21.9034 91.1887 22.188 91.1887Z" fill="#F1F1F1"/>
<path d="M23.8625 91.1887C24.147 91.1887 24.3777 90.9335 24.3777 90.6187C24.3777 90.3039 24.147 90.0486 23.8625 90.0486C23.5779 90.0486 23.3472 90.3039 23.3472 90.6187C23.3472 90.9335 23.5779 91.1887 23.8625 91.1887Z" fill="#008EDD"/>
</g>
<defs>
<filter id="filter0_d_18_582" x="0.756104" y="0.0992279" width="149.754" height="117.756" filterUnits="userSpaceOnUse" color-interpolation-filters="sRGB">
<feFlood flood-opacity="0" result="BackgroundImageFix"/>
<feColorMatrix in="SourceAlpha" type="matrix" values="0 0 0 0 0 0 0 0 0 0 0 0 0 0 0 0 0 0 127 0" result="hardAlpha"/>
<feOffset dy="4"/>
<feGaussianBlur stdDeviation="2"/>
<feComposite in2="hardAlpha" operator="out"/>
<feColorMatrix type="matrix" values="0 0 0 0 0 0 0 0 0 0 0 0 0 0 0 0 0 0 0.25 0"/>
<feBlend mode="normal" in2="BackgroundImageFix" result="effect1_dropShadow_18_582"/>
<feBlend mode="normal" in="SourceGraphic" in2="effect1_dropShadow_18_582" result="shape"/>
</filter>
<clipPath id="clip0_18_582">
<rect width="141.754" height="109.756" fill="white" transform="translate(4.7561 0.0992279)"/>
</clipPath>
</defs>
</svg>
