<svg width="133" height="111" viewBox="0 0 133 111" fill="none" xmlns="http://www.w3.org/2000/svg">
<g clip-path="url(#clip0_18_946)">
<path d="M62.5381 110.565C91.1709 110.565 114.382 109.378 114.382 107.914C114.382 106.449 91.1709 105.262 62.5381 105.262C33.9052 105.262 10.6937 106.449 10.6937 107.914C10.6937 109.378 33.9052 110.565 62.5381 110.565Z" fill="#F2F2F2"/>
<path d="M92.8278 26.2812H92.2388V10.1468C92.2388 7.67013 91.255 5.29493 89.5037 3.54368C87.7525 1.79244 85.3773 0.808596 82.9007 0.808594H48.7177C46.2411 0.808589 43.8659 1.79242 42.1146 3.54366C40.3634 5.2949 39.3796 7.67009 39.3795 10.1467V98.6614C39.3795 101.138 40.3634 103.513 42.1146 105.264C43.8659 107.016 46.2411 108 48.7177 108H82.9006C85.3773 108 87.7525 107.016 89.5037 105.264C91.255 103.513 92.2388 101.138 92.2388 98.6614V37.7659H92.8278L92.8278 26.2812Z" fill="#3F3D56"/>
<path d="M90.2512 10.2119V98.5963C90.2512 100.446 89.5164 102.22 88.2086 103.528C86.9007 104.835 85.1269 105.57 83.2773 105.57H48.9304C47.0808 105.57 45.3069 104.835 43.9991 103.528C42.6912 102.22 41.9565 100.446 41.9564 98.5963V10.2119C41.9565 8.36233 42.6912 6.5885 43.9991 5.28064C45.3069 3.97278 47.0808 3.23801 48.9304 3.23798H53.0971C52.8923 3.7411 52.8144 4.28682 52.87 4.82715C52.9257 5.36748 53.1133 5.88585 53.4163 6.33666C53.7193 6.78747 54.1285 7.15692 54.6078 7.41249C55.0871 7.66807 55.6218 7.80194 56.165 7.80234H75.7481C76.2912 7.80194 76.826 7.66806 77.3053 7.41249C77.7846 7.15691 78.1938 6.78746 78.4968 6.33665C78.7998 5.88584 78.9874 5.36747 79.0431 4.82715C79.0987 4.28682 79.0207 3.7411 78.816 3.23798H83.2773C85.1269 3.23801 86.9007 3.97278 88.2086 5.28064C89.5164 6.5885 90.2512 8.36233 90.2512 10.2119Z" fill="white"/>
<path d="M73.0695 23.3094C70.1786 23.309 67.3669 24.2537 65.0628 25.9997C62.7587 27.7457 61.0887 30.1972 60.3072 32.9805C59.5258 35.7637 59.6758 38.7262 60.7344 41.4163C61.793 44.1064 63.702 46.3766 66.1707 47.881L66.2561 47.9311C66.3268 47.9738 66.3975 48.015 66.4682 48.0548C66.5875 48.1255 66.7068 48.1932 66.829 48.258C66.9115 48.3007 66.994 48.3449 67.0765 48.3862C67.9966 48.8558 68.969 49.2147 69.9736 49.4555C70.1813 49.5055 70.3889 49.5512 70.601 49.5895C71.4148 49.7436 72.2413 49.8211 73.0695 49.8207C73.2786 49.8207 73.4863 49.8163 73.694 49.806C73.9857 49.7927 74.2743 49.7697 74.5601 49.7368C74.9062 49.6985 75.2479 49.6464 75.5852 49.5806C76.2663 49.4495 76.9361 49.2648 77.5883 49.0283C77.6707 48.9974 77.7532 48.9665 77.8342 48.9355C78.0566 48.8501 78.275 48.7588 78.4896 48.6616C78.7253 48.5555 78.9575 48.4426 79.1863 48.3228C81.4792 47.122 83.3743 45.2817 84.6417 43.025C84.6476 43.0132 84.655 43.0014 84.6609 42.9896C85.3371 41.7762 85.8168 40.4633 86.0822 39.0998C86.4548 37.1803 86.3983 35.2022 85.9169 33.307C85.4355 31.4119 84.541 29.6466 83.2975 28.1377C82.054 26.6287 80.4922 25.4134 78.724 24.5786C76.9558 23.7439 75.0248 23.3105 73.0695 23.3094ZM84.4193 42.8173C84.4075 42.8379 84.3972 42.8586 84.3854 42.8777C83.1433 45.1011 81.2748 46.9101 79.0125 48.0798C78.7871 48.1976 78.5578 48.3081 78.3247 48.4112C78.1317 48.4981 77.9344 48.5806 77.7355 48.6572C77.6515 48.6896 77.5662 48.722 77.4807 48.7514C76.9173 48.9572 76.34 49.1226 75.7531 49.2463C75.3177 49.339 74.8776 49.4083 74.4348 49.454C74.1623 49.4834 73.8855 49.5041 73.6071 49.5144C73.4289 49.5217 73.2492 49.5262 73.0695 49.5262C72.268 49.5271 71.4681 49.4526 70.6806 49.3037C70.2015 49.2154 69.7279 49.0993 69.2622 48.9562C68.5528 48.737 67.8635 48.4576 67.2017 48.121C67.1251 48.0813 67.0485 48.0415 66.9733 48.0003C66.8658 47.9428 66.7569 47.8839 66.6508 47.8206C66.5713 47.7764 66.4917 47.7293 66.4137 47.6821C66.368 47.6556 66.3224 47.6276 66.2767 47.5997C64.1123 46.2705 62.3857 44.335 61.3113 42.0335C60.2368 39.732 59.8617 37.1657 60.2325 34.6529C60.6032 32.1401 61.7036 29.7915 63.397 27.8984C65.0904 26.0053 67.3024 24.6511 69.7585 24.0036C72.2145 23.3562 74.8066 23.4441 77.2132 24.2565C79.6198 25.0688 81.7349 26.5699 83.2961 28.5734C84.8574 30.5769 85.7961 32.9946 85.9957 35.5268C86.1954 38.0589 85.6473 40.5939 84.4193 42.8173Z" fill="#3F3D56"/>
<path d="M74.2302 47.2633C74.2153 47.2986 74.1986 47.3331 74.1801 47.3667C74.083 47.5459 73.9458 47.7002 73.7792 47.8177C73.5819 47.9565 73.3503 48.0385 73.1096 48.0547C72.869 48.0709 72.6285 48.0207 72.4144 47.9096C72.2003 47.7985 72.0208 47.6307 71.8956 47.4245C71.7703 47.2184 71.7041 46.9818 71.7041 46.7406V46.528H71.8845C72.5853 46.981 73.3961 47.2352 74.2302 47.2633Z" fill="#3F3D56"/>
<path d="M76.804 46.5901V46.7404C76.8041 47.0331 76.7067 47.3174 76.5272 47.5486C76.3476 47.7797 76.0962 47.9444 75.8126 48.0167C75.529 48.089 75.2294 48.0648 74.9611 47.9478C74.6929 47.8308 74.4712 47.6278 74.3312 47.3707C74.3119 47.3364 74.2945 47.301 74.279 47.2647C74.3175 47.2658 74.3555 47.2663 74.394 47.2663C75.2443 47.2673 76.0783 47.0333 76.804 46.5901Z" fill="#3F3D56"/>
<path d="M78.5787 30.6932C78.5391 30.6874 78.4991 30.6837 78.459 30.681C78.9145 31.7308 78.9461 32.9162 78.5471 33.9888C78.5871 33.9841 78.6267 33.9777 78.6663 33.9703C79.0526 33.8955 79.3998 33.686 79.6461 33.3791C79.8924 33.0723 80.0218 32.688 80.0113 32.2946C80.0008 31.9013 79.851 31.5245 79.5887 31.2312C79.3263 30.9379 78.9684 30.7473 78.5787 30.6932Z" fill="#3F3D56"/>
<path d="M70.3294 30.681C70.2893 30.6837 70.2493 30.6874 70.2097 30.6932C69.82 30.7473 69.4621 30.9379 69.1997 31.2312C68.9374 31.5245 68.7877 31.9013 68.7771 32.2946C68.7666 32.688 68.896 33.0723 69.1423 33.3791C69.3886 33.686 69.7358 33.8955 70.1221 33.9703C70.1617 33.9777 70.2012 33.9841 70.2413 33.9888C69.8423 32.9162 69.8739 31.7309 70.3294 30.681Z" fill="#3F3D56"/>
<path d="M78.5786 30.6932C78.1441 29.6553 77.3392 28.8159 76.3204 28.3381C75.3016 27.8604 74.1416 27.7784 73.0657 28.1081C71.9898 28.4379 71.0749 29.1557 70.4987 30.1223C69.9225 31.0888 69.7262 32.235 69.9479 33.3383C70.1695 34.4415 70.7933 35.4229 71.6981 36.0919C72.6029 36.7609 73.7241 37.0697 74.8438 36.9583C75.9636 36.8468 77.0019 36.3232 77.7571 35.489C78.5124 34.6548 78.9306 33.5697 78.9305 32.4445C78.9302 31.8432 78.8107 31.2479 78.5786 30.6932ZM78.547 33.9889C78.1611 35.0261 77.4011 35.8813 76.4163 36.3861C75.4316 36.891 74.2935 37.009 73.2262 36.7169C72.1588 36.4248 71.2394 35.7438 70.649 34.8079C70.0585 33.8719 69.8398 32.7489 70.0358 31.6598C70.2318 30.5706 70.8284 29.5943 71.7082 28.923C72.5879 28.2517 73.687 27.9339 74.7893 28.0324C75.8915 28.1308 76.917 28.6382 77.6639 29.4547C78.4108 30.2713 78.825 31.3378 78.825 32.4445C78.8248 32.9717 78.7307 33.4947 78.547 33.9889Z" fill="#3F3D56"/>
<path d="M76.7149 31.4158H72.0731C71.8283 31.4158 71.5935 31.5131 71.4204 31.6862C71.2473 31.8593 71.1501 32.0941 71.1501 32.3389C71.1501 32.5837 71.2473 32.8185 71.4204 32.9916C71.5935 33.1647 71.8283 33.262 72.0731 33.262H76.7149C76.9597 33.262 77.1945 33.1647 77.3676 32.9916C77.5407 32.8185 77.638 32.5837 77.638 32.3389C77.638 32.0941 77.5407 31.8593 77.3676 31.6862C77.1945 31.5131 76.9597 31.4158 76.7149 31.4158Z" fill="#3F3D56"/>
<path d="M78.5468 40.327C78.5299 40.2959 78.5125 40.2653 78.4946 40.2353C78.4941 40.2342 78.4935 40.2337 78.493 40.2326C78.078 39.5222 77.4853 38.9318 76.7733 38.5196C76.0612 38.1073 75.2542 37.8873 74.4314 37.8811C73.6086 37.8749 72.7983 38.0827 72.0801 38.4842C71.3619 38.8857 70.7604 39.467 70.3347 40.1711C69.909 40.8753 69.6737 41.678 69.6519 42.5005C69.6301 43.323 69.8226 44.1371 70.2104 44.8628C70.5981 45.5885 71.168 46.2008 71.8639 46.6398C72.5598 47.0788 73.3579 47.3293 74.1799 47.3667C74.23 47.3693 74.2806 47.3709 74.3312 47.3709C74.3524 47.372 74.3729 47.372 74.394 47.372C75.242 47.3732 76.0746 47.1456 76.8041 46.7132C77.5963 46.2443 78.2363 45.5565 78.647 44.7325C78.6476 44.7314 78.6481 44.7309 78.6486 44.7299C78.6644 44.6982 78.6797 44.666 78.695 44.6333C79.0123 43.9549 79.1642 43.2109 79.1385 42.4624C79.1127 41.7139 78.91 40.9821 78.5468 40.327ZM78.5922 44.6043C78.5769 44.637 78.5611 44.6692 78.5447 44.7008C78.1524 45.4809 77.5494 46.1354 76.8041 46.5903C76.0784 47.0334 75.2443 47.2675 74.394 47.2665C74.3555 47.2665 74.3175 47.266 74.279 47.2649C74.2627 47.2649 74.2463 47.2644 74.23 47.2633C73.4246 47.2352 72.6404 46.9978 71.9546 46.5746C71.2688 46.1515 70.705 45.557 70.3187 44.8498C69.9323 44.1426 69.7368 43.347 69.7512 42.5413C69.7657 41.7355 69.9897 40.9475 70.4011 40.2546C70.8126 39.5617 71.3974 38.9879 72.0979 38.5895C72.7985 38.1912 73.5906 37.9822 74.3965 37.983C75.2024 37.9837 75.9941 38.1943 76.6939 38.5939C77.3937 38.9936 77.9774 39.5685 78.3875 40.2622C78.388 40.2632 78.3886 40.2637 78.3891 40.2648C78.4076 40.2949 78.4255 40.3255 78.4424 40.3561C78.8044 41.0009 79.0069 41.723 79.0329 42.462C79.059 43.201 78.9079 43.9356 78.5922 44.6043Z" fill="#3F3D56"/>
<path d="M78.0426 40.4673C77.9502 40.4015 77.8396 40.3659 77.7261 40.3655H75.6516C75.5071 40.3655 75.3685 40.4229 75.2663 40.5251C75.1641 40.6273 75.1067 40.7659 75.1067 40.9104C75.1067 41.0549 75.1641 41.1935 75.2663 41.2957C75.3685 41.3979 75.5071 41.4553 75.6516 41.4553H77.7261C77.7631 41.4554 77.8001 41.4517 77.8364 41.4442C77.8725 41.4364 77.9078 41.4253 77.9418 41.411C78.0305 41.3728 78.1075 41.3117 78.1648 41.2339C78.2221 41.1562 78.2577 41.0646 78.2679 40.9686C78.2782 40.8726 78.2627 40.7756 78.2231 40.6875C78.1835 40.5994 78.1212 40.5234 78.0426 40.4673Z" fill="#3F3D56"/>
<path d="M75.7898 41.1869C75.9426 41.1869 76.0664 41.0631 76.0664 40.9103C76.0664 40.7575 75.9426 40.6337 75.7898 40.6337C75.637 40.6337 75.5132 40.7575 75.5132 40.9103C75.5132 41.0631 75.637 41.1869 75.7898 41.1869Z" fill="#F1F1F1"/>
<path d="M76.6888 41.1869C76.8416 41.1869 76.9655 41.0631 76.9655 40.9103C76.9655 40.7575 76.8416 40.6337 76.6888 40.6337C76.5361 40.6337 76.4122 40.7575 76.4122 40.9103C76.4122 41.0631 76.5361 41.1869 76.6888 41.1869Z" fill="#F1F1F1"/>
<path d="M77.5879 41.1869C77.7407 41.1869 77.8645 41.0631 77.8645 40.9103C77.8645 40.7575 77.7407 40.6337 77.5879 40.6337C77.4351 40.6337 77.3112 40.7575 77.3112 40.9103C77.3112 41.0631 77.4351 41.1869 77.5879 41.1869Z" fill="#008EDD"/>
<path d="M50.1573 41.8627C50.0656 41.8626 49.9749 41.8434 49.891 41.8063C49.8072 41.7691 49.732 41.7149 49.6703 41.6471L42.3617 33.674C42.2788 33.5837 42.178 33.5116 42.0658 33.4623C41.9536 33.4129 41.8324 33.3874 41.7098 33.3872H3.0887C2.5026 33.3866 1.94069 33.1534 1.52626 32.739C1.11183 32.3246 0.87871 31.7627 0.878052 31.1766V17.2489C0.878709 16.6628 1.11183 16.1009 1.52626 15.6865C1.94069 15.272 2.5026 15.0389 3.0887 15.0383H53.1252C53.7113 15.0389 54.2732 15.272 54.6876 15.6865C55.1021 16.1009 55.3352 16.6628 55.3358 17.2489V31.1766C55.3352 31.7627 55.1021 32.3246 54.6876 32.739C54.2732 33.1534 53.7113 33.3866 53.1252 33.3872H51.7066C51.4722 33.3875 51.2474 33.4808 51.0816 33.6466C50.9158 33.8124 50.8225 34.0372 50.8222 34.2716V41.1989C50.8228 41.3327 50.7827 41.4634 50.7072 41.5738C50.6317 41.6842 50.5244 41.769 50.3995 41.8169C50.3223 41.8471 50.2402 41.8626 50.1573 41.8627Z" fill="white"/>
<path d="M50.1573 41.8627C50.0656 41.8626 49.9749 41.8434 49.891 41.8063C49.8072 41.7691 49.732 41.7149 49.6703 41.6471L42.3617 33.674C42.2788 33.5837 42.178 33.5116 42.0658 33.4623C41.9536 33.4129 41.8324 33.3874 41.7098 33.3872H3.0887C2.5026 33.3866 1.94069 33.1534 1.52626 32.739C1.11183 32.3246 0.87871 31.7627 0.878052 31.1766V17.2489C0.878709 16.6628 1.11183 16.1009 1.52626 15.6865C1.94069 15.272 2.5026 15.0389 3.0887 15.0383H53.1252C53.7113 15.0389 54.2732 15.272 54.6876 15.6865C55.1021 16.1009 55.3352 16.6628 55.3358 17.2489V31.1766C55.3352 31.7627 55.1021 32.3246 54.6876 32.739C54.2732 33.1534 53.7113 33.3866 53.1252 33.3872H51.7066C51.4722 33.3875 51.2474 33.4808 51.0816 33.6466C50.9158 33.8124 50.8225 34.0372 50.8222 34.2716V41.1989C50.8228 41.3327 50.7827 41.4634 50.7072 41.5738C50.6317 41.6842 50.5244 41.769 50.3995 41.8169C50.3223 41.8471 50.2402 41.8626 50.1573 41.8627ZM3.0887 15.3328C2.5807 15.3334 2.09367 15.5355 1.73446 15.8947C1.37525 16.2539 1.1732 16.7409 1.17262 17.2489V31.1766C1.1732 31.6846 1.37525 32.1716 1.73446 32.5308C2.09367 32.89 2.5807 33.0921 3.0887 33.0926H41.7098C41.8732 33.0928 42.0348 33.1269 42.1844 33.1927C42.3339 33.2585 42.4683 33.3546 42.5788 33.475L49.8874 41.448C49.9376 41.5027 50.0031 41.541 50.0755 41.5579C50.1478 41.5747 50.2235 41.5693 50.2927 41.5424C50.3619 41.5155 50.4214 41.4683 50.4633 41.407C50.5052 41.3457 50.5277 41.2732 50.5277 41.1989V34.2716C50.528 33.9591 50.6523 33.6594 50.8734 33.4384C51.0944 33.2173 51.3941 33.093 51.7066 33.0926H53.1252C53.6332 33.0921 54.1202 32.89 54.4794 32.5308C54.8386 32.1716 55.0407 31.6846 55.0413 31.1766V17.2489C55.0407 16.7409 54.8386 16.2539 54.4794 15.8947C54.1202 15.5355 53.6332 15.3334 53.1252 15.3328H3.0887Z" fill="#3F3D56"/>
<path d="M6.30049 21.1822C7.36883 21.1822 8.23489 20.3161 8.23489 19.2478C8.23489 18.1794 7.36883 17.3134 6.30049 17.3134C5.23215 17.3134 4.36609 18.1794 4.36609 19.2478C4.36609 20.3161 5.23215 21.1822 6.30049 21.1822Z" fill="#008EDD"/>
<path d="M50.8684 29.9514H5.34547C5.20989 29.9516 5.0756 29.925 4.95029 29.8732C4.82498 29.8215 4.7111 29.7455 4.61517 29.6497C4.51924 29.5539 4.44313 29.4401 4.39121 29.3148C4.33929 29.1896 4.31256 29.0553 4.31256 28.9197C4.31256 28.7842 4.33929 28.6499 4.39121 28.5247C4.44313 28.3994 4.51924 28.2856 4.61517 28.1898C4.7111 28.094 4.82498 28.018 4.95029 27.9662C5.0756 27.9145 5.20989 27.8879 5.34547 27.8881H50.8684C51.1418 27.8884 51.4039 27.9972 51.5971 28.1907C51.7903 28.3841 51.8988 28.6463 51.8988 28.9197C51.8988 29.1931 51.7903 29.4554 51.5971 29.6488C51.4039 29.8423 51.1418 29.9511 50.8684 29.9514Z" fill="#E6E6E6"/>
<path d="M36.038 25.5668H5.34547C5.20989 25.5669 5.0756 25.5404 4.95029 25.4886C4.82498 25.4368 4.7111 25.3609 4.61517 25.265C4.51924 25.1692 4.44313 25.0554 4.39121 24.9302C4.33929 24.8049 4.31256 24.6707 4.31256 24.5351C4.31256 24.3995 4.33929 24.2653 4.39121 24.14C4.44313 24.0148 4.51924 23.901 4.61517 23.8052C4.7111 23.7093 4.82498 23.6334 4.95029 23.5816C5.0756 23.5298 5.20989 23.5033 5.34547 23.5034H36.038C36.3116 23.5034 36.574 23.6121 36.7675 23.8056C36.961 23.9991 37.0696 24.2615 37.0696 24.5351C37.0696 24.8087 36.961 25.0711 36.7675 25.2646C36.574 25.4581 36.3116 25.5668 36.038 25.5668Z" fill="#E6E6E6"/>
<path d="M82.6311 89.0954C82.5063 89.0475 82.399 88.9627 82.3235 88.8523C82.248 88.7419 82.2078 88.6112 82.2084 88.4774V81.5501C82.2081 81.3157 82.1149 81.0909 81.9491 80.9251C81.7833 80.7593 81.5585 80.666 81.324 80.6657H79.9055C79.3194 80.6651 78.7575 80.4319 78.343 80.0175C77.9286 79.6031 77.6955 79.0412 77.6948 78.4551V64.5274C77.6955 63.9413 77.9286 63.3794 78.343 62.965C78.7575 62.5505 79.3194 62.3174 79.9055 62.3168H129.942C130.528 62.3174 131.09 62.5505 131.504 62.965C131.919 63.3794 132.152 63.9413 132.153 64.5274V78.4551C132.152 79.0412 131.919 79.6031 131.504 80.0175C131.09 80.4319 130.528 80.6651 129.942 80.6657H91.3209C91.1983 80.6659 91.0771 80.6914 90.9649 80.7408C90.8527 80.7902 90.7519 80.8622 90.669 80.9525L83.3604 88.9256C83.2987 88.9934 83.2235 89.0476 83.1396 89.0848C83.0558 89.1219 82.9651 89.1411 82.8734 89.1412C82.7905 89.1412 82.7083 89.1256 82.6311 89.0954Z" fill="white"/>
<path d="M82.6311 89.0954C82.5063 89.0475 82.399 88.9627 82.3235 88.8523C82.248 88.7419 82.2078 88.6112 82.2084 88.4774V81.5501C82.2081 81.3157 82.1149 81.0909 81.9491 80.9251C81.7833 80.7593 81.5585 80.666 81.324 80.6657H79.9055C79.3194 80.6651 78.7575 80.4319 78.343 80.0175C77.9286 79.6031 77.6955 79.0412 77.6948 78.4551V64.5274C77.6955 63.9413 77.9286 63.3794 78.343 62.965C78.7575 62.5505 79.3194 62.3174 79.9055 62.3168H129.942C130.528 62.3174 131.09 62.5505 131.504 62.965C131.919 63.3794 132.152 63.9413 132.153 64.5274V78.4551C132.152 79.0412 131.919 79.6031 131.504 80.0175C131.09 80.4319 130.528 80.6651 129.942 80.6657H91.3209C91.1983 80.6659 91.0771 80.6914 90.9649 80.7408C90.8527 80.7902 90.7519 80.8622 90.669 80.9525L83.3604 88.9256C83.2987 88.9934 83.2235 89.0476 83.1396 89.0848C83.0558 89.1219 82.9651 89.1411 82.8734 89.1412C82.7905 89.1412 82.7083 89.1256 82.6311 89.0954ZM79.9055 62.6113C79.3975 62.6119 78.9104 62.814 78.5512 63.1732C78.192 63.5324 77.99 64.0194 77.9894 64.5274V78.4551C77.99 78.9631 78.192 79.4501 78.5512 79.8093C78.9104 80.1685 79.3975 80.3706 79.9055 80.3711H81.324C81.6366 80.3715 81.9363 80.4958 82.1573 80.7169C82.3783 80.9379 82.5026 81.2376 82.503 81.5501V88.4774C82.503 88.5517 82.5254 88.6242 82.5674 88.6855C82.6093 88.7468 82.6688 88.794 82.738 88.8209C82.8072 88.8478 82.8829 88.8532 82.9552 88.8364C83.0275 88.8195 83.0931 88.7812 83.1433 88.7265L90.4519 80.7535C90.5624 80.6331 90.6967 80.537 90.8463 80.4712C90.9959 80.4054 91.1575 80.3713 91.3209 80.3711H129.942C130.45 80.3706 130.937 80.1685 131.296 79.8093C131.655 79.4501 131.857 78.9631 131.858 78.4551V64.5274C131.857 64.0194 131.655 63.5324 131.296 63.1732C130.937 62.814 130.45 62.6119 129.942 62.6113H79.9055Z" fill="#3F3D56"/>
<path d="M67.0353 93.4083C64.9834 94.7223 62.6061 95.4387 60.1698 95.4775C57.7336 95.5163 55.3347 94.8758 53.242 93.6278C53.6101 92.9425 54.0766 92.3148 54.6265 91.7646C55.475 90.9121 56.5077 90.2653 57.6452 89.8741C58.7827 89.483 59.9947 89.3577 61.1881 89.5081C62.3816 89.6584 63.5247 90.0803 64.5296 90.7414C65.5346 91.4024 66.3746 92.285 66.9852 93.3214C67.0013 93.3494 67.019 93.3789 67.0353 93.4083Z" fill="#008EDD"/>
<path d="M59.5628 86.3651C63.1583 86.3651 66.073 83.4503 66.073 79.8548C66.073 76.2593 63.1583 73.3446 59.5628 73.3446C55.9673 73.3446 53.0525 76.2593 53.0525 79.8548C53.0525 83.4503 55.9673 86.3651 59.5628 86.3651Z" fill="#2F2E41"/>
<path d="M64.407 84.4468C65.6906 82.0987 64.8276 79.1546 62.4795 77.871C60.1314 76.5874 57.1873 77.4504 55.9037 79.7985C54.6201 82.1466 55.4831 85.0907 57.8312 86.3743C60.1793 87.6578 63.1234 86.7949 64.407 84.4468Z" fill="#FFB8B8"/>
<path d="M55.064 79.0749C56.1712 79.8381 57.4854 80.2442 58.8302 80.2388C58.3505 80.5714 57.8044 80.7961 57.2295 80.8974C59.0175 81.2809 60.8653 81.2913 62.6575 80.9279C63.0558 80.864 63.4402 80.732 63.7938 80.5376C63.9699 80.4392 64.1234 80.3048 64.2443 80.1432C64.3651 79.9816 64.4506 79.7964 64.4951 79.5996C64.6142 78.9193 64.0841 78.3012 63.5332 77.8846C62.6897 77.2566 61.7172 76.8239 60.686 76.6178C59.6547 76.4117 58.5906 76.4374 57.5705 76.6931C56.9044 76.8653 56.2372 77.1562 55.8046 77.6911C55.3719 78.226 55.2438 79.0506 55.656 79.6014L55.064 79.0749Z" fill="#2F2E41"/>
<path d="M59.9612 95.6264C56.7728 95.6254 53.6917 94.4749 51.283 92.3859C48.8743 90.2969 47.2995 87.4095 46.8475 84.2534C46.3956 81.0972 47.0967 77.8839 48.8223 75.2029C50.5479 72.5218 53.1823 70.5528 56.2422 69.657C59.3022 68.7613 62.5825 68.9988 65.4815 70.326C68.3805 71.6532 70.7038 73.9812 72.0252 76.8828C73.3466 79.7845 73.5775 83.0652 72.6756 86.1234C71.7737 89.1815 69.7994 91.812 67.1149 93.5322C64.9801 94.9011 62.4971 95.628 59.9612 95.6264ZM59.9612 69.4096C57.3973 69.4094 54.891 70.1694 52.7592 71.5937C50.6274 73.0179 48.9658 75.0423 47.9845 77.4109C47.0033 79.7795 46.7465 82.3859 47.2466 84.9005C47.7467 87.415 48.9813 89.7248 50.7942 91.5377C52.6071 93.3506 54.9168 94.5852 57.4314 95.0853C59.946 95.5854 62.5524 95.3286 64.921 94.3474C67.2896 93.3661 69.314 91.7045 70.7382 89.5727C72.1624 87.4408 72.9225 84.9346 72.9222 82.3707C72.9184 78.9344 71.5516 75.64 69.1217 73.2101C66.6919 70.7803 63.3975 69.4135 59.9612 69.4096Z" fill="#3F3D56"/>
<path d="M83.9198 68.3134C84.9882 68.3134 85.8542 67.4473 85.8542 66.379C85.8542 65.3106 84.9882 64.4446 83.9198 64.4446C82.8515 64.4446 81.9854 65.3106 81.9854 66.379C81.9854 67.4473 82.8515 68.3134 83.9198 68.3134Z" fill="#008EDD"/>
<path d="M128.488 77.0827H82.9648C82.8292 77.0829 82.6949 77.0563 82.5696 77.0045C82.4443 76.9528 82.3304 76.8768 82.2345 76.781C82.1386 76.6852 82.0625 76.5714 82.0105 76.4461C81.9586 76.3209 81.9319 76.1866 81.9319 76.051C81.9319 75.9154 81.9586 75.7812 82.0105 75.6559C82.0625 75.5307 82.1386 75.4169 82.2345 75.3211C82.3304 75.2253 82.4443 75.1493 82.5696 75.0975C82.6949 75.0457 82.8292 75.0192 82.9648 75.0193H128.488C128.761 75.0193 129.024 75.128 129.217 75.3215C129.411 75.515 129.519 75.7774 129.519 76.051C129.519 76.3246 129.411 76.5871 129.217 76.7805C129.024 76.974 128.761 77.0827 128.488 77.0827Z" fill="#E6E6E6"/>
<path d="M113.657 72.6981H82.9648C82.8292 72.6982 82.6949 72.6717 82.5696 72.6199C82.4443 72.5681 82.3304 72.4921 82.2345 72.3963C82.1386 72.3005 82.0625 72.1867 82.0105 72.0615C81.9586 71.9362 81.9319 71.802 81.9319 71.6664C81.9319 71.5308 81.9586 71.3965 82.0105 71.2713C82.0625 71.146 82.1386 71.0323 82.2345 70.9364C82.3304 70.8406 82.4443 70.7647 82.5696 70.7129C82.6949 70.6611 82.8292 70.6345 82.9648 70.6347H113.657C113.931 70.635 114.193 70.7439 114.386 70.9373C114.579 71.1308 114.688 71.393 114.688 71.6664C114.688 71.9398 114.579 72.202 114.386 72.3955C114.193 72.5889 113.931 72.6977 113.657 72.6981Z" fill="#E6E6E6"/>
<path d="M82.5688 90.414C84.5621 90.414 86.1779 90.2347 86.1779 90.0135C86.1779 89.7923 84.5621 89.6129 82.5688 89.6129C80.5756 89.6129 78.9598 89.7923 78.9598 90.0135C78.9598 90.2347 80.5756 90.414 82.5688 90.414Z" fill="#F2F2F2"/>
<path d="M50.3134 43.2828C52.3066 43.2828 53.9225 43.1035 53.9225 42.8822C53.9225 42.661 52.3066 42.4817 50.3134 42.4817C48.3202 42.4817 46.7043 42.661 46.7043 42.8822C46.7043 43.1035 48.3202 43.2828 50.3134 43.2828Z" fill="#F2F2F2"/>
</g>
<defs>
<clipPath id="clip0_18_946">
<rect width="131.275" height="109.756" fill="white" transform="translate(0.878052 0.808594)"/>
</clipPath>
</defs>
</svg>
