<svg width="142" height="111" viewBox="0 0 142 111" fill="none" xmlns="http://www.w3.org/2000/svg">
<g clip-path="url(#clip0_205_387)">
<path d="M117.872 47.7889C117.872 47.7889 114.539 49.6467 115.498 51.7619C116.458 53.8771 130.08 52.1465 130.08 52.1465C130.08 52.1465 129.121 49.2622 127.394 48.6853C125.667 48.1084 117.872 47.7889 117.872 47.7889Z" fill="#008EDD"/>
<path d="M116.573 48.2843C117.242 47.8479 117.987 47.5394 118.769 47.3741C121.376 46.7407 124.106 46.8261 126.669 47.6211L126.622 47.5828C127.714 48.1605 128.673 48.9616 129.436 49.9342L116.573 48.2843Z" fill="#CCCCCC"/>
<path d="M131.331 57.3806C131.285 58.071 131.239 58.7606 131.193 59.4497C131.13 60.8929 130.973 62.3304 130.723 63.7532C130.489 64.9434 130.116 66.1241 129.451 67.1375C128.785 68.1489 127.797 68.9854 126.626 69.2931C125.908 69.4657 125.161 69.4821 124.435 69.3411C123.067 68.5623 122.141 69.5584 123.507 70.5718C123.817 70.8014 124.139 71.0139 124.472 71.2083L125.091 80.7978L113.58 78.298L115.826 65.5415C115.482 65.2281 115.168 64.8837 114.886 64.5127C113.599 62.7994 113.156 60.5669 113.24 58.4248C113.326 56.2807 113.896 54.1905 114.462 52.1234C114.607 51.5626 114.781 51.0099 114.984 50.4678C115.235 50.5716 115.491 50.6658 115.75 50.7447C117.405 51.2485 119.165 51.2889 120.895 51.2869C123.975 51.285 127.05 51.1645 130.122 50.9254C130.828 52.0901 131.257 53.4021 131.375 54.7597C131.425 55.6332 131.41 56.5093 131.331 57.3806Z" fill="#CCCCCC"/>
<path d="M82.0952 83.4119L99.8176 84.9887L100.008 85.006V9.2165C99.9442 9.17227 99.8809 9.12804 99.8176 9.08382C96.124 6.49456 92.1286 4.36744 87.9201 2.74976L87.0145 15.2679L86.932 16.4139L86.036 28.8282L85.7597 32.6471L82.1278 82.9696L82.0952 83.4119Z" fill="#E6E6E6"/>
<path d="M38.2678 7.80515C38.1412 7.88591 38.0145 7.96667 37.8879 8.05128V85.0061L38.2678 84.9715L55.7984 83.412L55.7657 82.9697L52.1338 32.6472L51.8575 28.8283L50.9615 16.414L50.879 15.268L49.9293 2.14026C45.8336 3.56309 41.9195 5.46449 38.2678 7.80515Z" fill="#E6E6E6"/>
<path d="M37.8879 8.05119C37.6327 8.21656 37.3776 8.38577 37.1262 8.55691V86.0559C37.1262 87.9922 38.2716 89.6152 39.8027 90.0286C40.0529 90.0965 40.311 90.1308 40.5702 90.1305H97.5152C97.7738 90.1309 98.0312 90.0966 98.2808 90.0286C98.8499 89.8704 99.3657 89.5607 99.7735 89.1325C100.551 88.2995 100.976 87.1966 100.959 86.0559V9.90487C100.645 9.6722 100.328 9.44145 100.008 9.21647C99.9442 9.17224 99.8809 9.12801 99.8176 9.08379V86.0559C99.818 86.3053 99.7884 86.5539 99.7293 86.7962C99.4588 87.9403 98.5666 88.7787 97.5152 88.7787H40.5702C39.3 88.7787 38.2678 87.5577 38.2678 86.0559V7.80505C38.1412 7.88582 38.0145 7.96658 37.8879 8.05119Z" fill="#E6E6E6"/>
<path d="M100.388 15.2687H37.6965V16.4145H100.388V15.2687Z" fill="#E6E6E6"/>
<path d="M81.1876 0.651837C80.8077 0.557614 80.4279 0.46916 80.0441 0.386475V31.5011H81.1876V0.651837Z" fill="#E6E6E6"/>
<path d="M58.0412 0C57.6594 0.0711476 57.2776 0.144216 56.8977 0.223055V31.5011H58.0412V0Z" fill="#E6E6E6"/>
<path d="M25.4053 88.1249C25.405 88.7825 25.5307 89.434 25.7756 90.044C25.8696 90.2806 25.9819 90.5094 26.1113 90.7285C26.2785 91.0143 26.4726 91.2835 26.6908 91.5323C27.1728 92.0828 27.7665 92.5239 28.4322 92.826C29.0979 93.1281 29.8203 93.2842 30.5511 93.2841H105.629C106.994 93.2841 108.303 92.7407 109.268 91.7736C110.233 90.8064 110.775 89.4946 110.775 88.1268C110.775 86.7591 110.233 85.4473 109.268 84.4801C108.303 83.513 106.994 82.9696 105.629 82.9696H30.5511C29.1871 82.9709 27.8793 83.5145 26.9146 84.4809C25.9499 85.4474 25.4071 86.7579 25.4053 88.1249Z" fill="#E6E6E6"/>
<path d="M37.6965 32.6476L100.007 32.6476V28.828L37.6965 28.828V32.6476Z" fill="#E6E6E6"/>
<path d="M71.5196 29.783H66.1841C66.1841 29.5071 66.2384 29.2339 66.3437 28.979C66.449 28.7242 66.6034 28.4926 66.7981 28.2975C66.9927 28.1024 67.2238 27.9477 67.4781 27.8421C67.7324 27.7366 68.005 27.6822 68.2802 27.6822H69.4235C69.9795 27.6822 70.5126 27.9035 70.9057 28.2975C71.2988 28.6915 71.5196 29.2258 71.5196 29.783Z" fill="#E6E6E6"/>
<path d="M-0.00509644 91.0708C1.66167 93.0501 3.46446 94.9103 5.3901 96.6376H136.352C138.278 94.9103 140.081 93.0501 141.747 91.0708H-0.00509644Z" fill="#3F3D56"/>
<path d="M35.5203 72.4551V92.1765H49.3057V72.4551C49.3059 72.3133 49.2608 72.1751 49.1769 72.0609C49.0929 71.9467 48.9747 71.8625 48.8395 71.8206C48.7758 71.7995 48.709 71.7891 48.6419 71.7898H36.1861C36.0988 71.7897 36.0123 71.8067 35.9316 71.8401C35.8508 71.8734 35.7775 71.9224 35.7156 71.9842C35.6538 72.046 35.6047 72.1194 35.5712 72.2002C35.5377 72.281 35.5204 72.3676 35.5203 72.4551ZM40.9002 79.2315C40.9038 78.8427 41.0604 78.471 41.336 78.1974C41.6116 77.9237 41.9838 77.7702 42.3718 77.7702C42.7597 77.7702 43.132 77.9237 43.4075 78.1974C43.6831 78.471 43.8398 78.8427 43.8434 79.2315V81.5197C43.8414 81.9096 43.6855 82.2828 43.4097 82.5578C43.1339 82.8327 42.7608 82.9871 42.3718 82.9871C41.9828 82.9871 41.6096 82.8327 41.3338 82.5578C41.0581 82.2828 40.9022 81.9096 40.9002 81.5197V79.2315Z" fill="#2F2E41"/>
<path d="M35.4781 91.5458V93.4475C35.4784 93.546 35.5175 93.6405 35.5868 93.7103C35.6561 93.7801 35.7501 93.8198 35.8484 93.8206H48.9776C49.076 93.8201 49.1702 93.7806 49.2396 93.7107C49.309 93.6407 49.3479 93.5461 49.3479 93.4475V91.5458H35.4781Z" fill="#3F3D56"/>
<path d="M13.834 42.7424V78.7508C13.8344 79.2096 14.0164 79.6496 14.3402 79.9741C14.6639 80.2985 15.1029 80.481 15.5608 80.4814H68.8029C69.2607 80.481 69.6997 80.2986 70.0235 79.9741C70.3472 79.6496 70.5293 79.2096 70.5296 78.7508V42.7424C70.5285 42.2839 70.3462 41.8445 70.0226 41.5205C69.6989 41.1965 69.2603 41.0143 68.8029 41.0137H15.5608C15.1033 41.0143 14.6647 41.1965 14.3411 41.5205C14.0174 41.8445 13.8351 42.2839 13.834 42.7424Z" fill="#3F3D56"/>
<path d="M15.083 43.1904V78.3065C15.0835 78.5517 15.1808 78.7867 15.3538 78.9601C15.5268 79.1335 15.7613 79.231 16.0059 79.2315H68.3596C68.6043 79.2311 68.8388 79.1335 69.0118 78.9601C69.1847 78.7867 69.2821 78.5517 69.2825 78.3065V43.1904C69.2825 42.9449 69.1853 42.7095 69.0123 42.5357C68.8393 42.362 68.6046 42.2641 68.3596 42.2635H16.0059C15.761 42.2641 15.5263 42.362 15.3533 42.5357C15.1802 42.7095 15.0831 42.9449 15.083 43.1904Z" fill="#008EDD"/>
<path d="M25.7583 94.2687C25.8116 94.3357 25.8793 94.3897 25.9564 94.4266C26.0335 94.4636 26.118 94.4826 26.2034 94.4822H57.3506C57.4357 94.4821 57.5198 94.4629 57.5967 94.4262C57.6736 94.3894 57.7413 94.3359 57.795 94.2696C57.8486 94.2033 57.8869 94.1258 57.9069 94.0429C57.9269 93.9599 57.9283 93.8735 57.9108 93.7899L57.4273 91.4882C57.4073 91.3943 57.3641 91.307 57.3018 91.2341C57.2395 91.1612 57.1599 91.1051 57.0704 91.0709C57.0056 91.0454 56.9367 91.0324 56.8671 91.0325H26.685C26.6154 91.0324 26.5464 91.0454 26.4817 91.0709C26.3922 91.1051 26.3126 91.1612 26.2503 91.2341C26.188 91.307 26.1448 91.3943 26.1248 91.4882L25.6413 93.7899C25.6241 93.8734 25.6257 93.9597 25.6459 94.0426C25.6661 94.1254 25.7046 94.2026 25.7583 94.2687Z" fill="#2F2E41"/>
<path d="M55.7802 92.0238H56.5521C56.6039 92.0238 56.6458 91.9818 56.6458 91.9299V91.5408C56.6458 91.489 56.6039 91.4469 56.5521 91.4469H55.7802C55.7284 91.4469 55.6865 91.489 55.6865 91.5408V91.9299C55.6865 91.9818 55.7284 92.0238 55.7802 92.0238Z" fill="#3F3D56"/>
<path d="M53.8615 92.0238H54.6335C54.6852 92.0238 54.7272 91.9818 54.7272 91.9299V91.5408C54.7272 91.489 54.6852 91.4469 54.6335 91.4469H53.8615C53.8098 91.4469 53.7679 91.489 53.7679 91.5408V91.9299C53.7679 91.9818 53.8098 92.0238 53.8615 92.0238Z" fill="#3F3D56"/>
<path d="M51.9429 92.0238H52.7149C52.7666 92.0238 52.8086 91.9818 52.8086 91.9299V91.5408C52.8086 91.489 52.7666 91.4469 52.7149 91.4469H51.9429C51.8912 91.4469 51.8492 91.489 51.8492 91.5408V91.9299C51.8492 91.9818 51.8912 92.0238 51.9429 92.0238Z" fill="#3F3D56"/>
<path d="M50.0243 92.0238H50.7963C50.848 92.0238 50.8899 91.9818 50.8899 91.9299V91.5408C50.8899 91.489 50.848 91.4469 50.7963 91.4469H50.0243C49.9725 91.4469 49.9306 91.489 49.9306 91.5408V91.9299C49.9306 91.9818 49.9725 92.0238 50.0243 92.0238Z" fill="#3F3D56"/>
<path d="M48.1056 92.0238H48.8776C48.9293 92.0238 48.9713 91.9818 48.9713 91.9299V91.5408C48.9713 91.489 48.9293 91.4469 48.8776 91.4469H48.1056C48.0539 91.4469 48.012 91.489 48.012 91.5408V91.9299C48.012 91.9818 48.0539 92.0238 48.1056 92.0238Z" fill="#3F3D56"/>
<path d="M46.187 92.0238H46.959C47.0107 92.0238 47.0526 91.9818 47.0526 91.9299V91.5408C47.0526 91.489 47.0107 91.4469 46.959 91.4469H46.187C46.1353 91.4469 46.0933 91.489 46.0933 91.5408V91.9299C46.0933 91.9818 46.1353 92.0238 46.187 92.0238Z" fill="#3F3D56"/>
<path d="M44.2684 92.0238H45.0404C45.0921 92.0238 45.134 91.9818 45.134 91.9299V91.5408C45.134 91.489 45.0921 91.4469 45.0404 91.4469H44.2684C44.2167 91.4469 44.1747 91.489 44.1747 91.5408V91.9299C44.1747 91.9818 44.2167 92.0238 44.2684 92.0238Z" fill="#3F3D56"/>
<path d="M42.3497 92.0238H43.1217C43.1735 92.0238 43.2154 91.9818 43.2154 91.9299V91.5408C43.2154 91.489 43.1735 91.4469 43.1217 91.4469H42.3497C42.298 91.4469 42.2561 91.489 42.2561 91.5408V91.9299C42.2561 91.9818 42.298 92.0238 42.3497 92.0238Z" fill="#3F3D56"/>
<path d="M40.4311 92.0238H41.2031C41.2548 92.0238 41.2968 91.9818 41.2968 91.9299V91.5408C41.2968 91.489 41.2548 91.4469 41.2031 91.4469H40.4311C40.3794 91.4469 40.3374 91.489 40.3374 91.5408V91.9299C40.3374 91.9818 40.3794 92.0238 40.4311 92.0238Z" fill="#3F3D56"/>
<path d="M38.5125 92.0238H39.2844C39.3362 92.0238 39.3781 91.9818 39.3781 91.9299V91.5408C39.3781 91.489 39.3362 91.4469 39.2844 91.4469H38.5125C38.4607 91.4469 38.4188 91.489 38.4188 91.5408V91.9299C38.4188 91.9818 38.4607 92.0238 38.5125 92.0238Z" fill="#3F3D56"/>
<path d="M36.5938 92.0238H37.3658C37.4175 92.0238 37.4595 91.9818 37.4595 91.9299V91.5408C37.4595 91.489 37.4175 91.4469 37.3658 91.4469H36.5938C36.5421 91.4469 36.5002 91.489 36.5002 91.5408V91.9299C36.5002 91.9818 36.5421 92.0238 36.5938 92.0238Z" fill="#3F3D56"/>
<path d="M34.6752 92.0238H35.4472C35.4989 92.0238 35.5409 91.9818 35.5409 91.9299V91.5408C35.5409 91.489 35.4989 91.4469 35.4472 91.4469H34.6752C34.6235 91.4469 34.5815 91.489 34.5815 91.5408V91.9299C34.5815 91.9818 34.6235 92.0238 34.6752 92.0238Z" fill="#3F3D56"/>
<path d="M32.7566 92.0238H33.5286C33.5803 92.0238 33.6222 91.9818 33.6222 91.9299V91.5408C33.6222 91.489 33.5803 91.4469 33.5286 91.4469H32.7566C32.7048 91.4469 32.6629 91.489 32.6629 91.5408V91.9299C32.6629 91.9818 32.7048 92.0238 32.7566 92.0238Z" fill="#3F3D56"/>
<path d="M30.8379 92.0238H31.6099C31.6616 92.0238 31.7036 91.9818 31.7036 91.9299V91.5408C31.7036 91.489 31.6616 91.4469 31.6099 91.4469H30.8379C30.7862 91.4469 30.7443 91.489 30.7443 91.5408V91.9299C30.7443 91.9818 30.7862 92.0238 30.8379 92.0238Z" fill="#3F3D56"/>
<path d="M28.9193 92.0238H29.6913C29.743 92.0238 29.7849 91.9818 29.7849 91.9299V91.5408C29.7849 91.489 29.743 91.4469 29.6913 91.4469H28.9193C28.8676 91.4469 28.8256 91.489 28.8256 91.5408V91.9299C28.8256 91.9818 28.8676 92.0238 28.9193 92.0238Z" fill="#3F3D56"/>
<path d="M27.0007 92.0238H27.7726C27.8244 92.0238 27.8663 91.9818 27.8663 91.9299V91.5408C27.8663 91.489 27.8244 91.4469 27.7726 91.4469H27.0007C26.9489 91.4469 26.907 91.489 26.907 91.5408V91.9299C26.907 91.9818 26.9489 92.0238 27.0007 92.0238Z" fill="#3F3D56"/>
<path d="M55.8028 92.9852H56.5748C56.6265 92.9852 56.6685 92.9432 56.6685 92.8914V92.5022C56.6685 92.4504 56.6265 92.4084 56.5748 92.4084H55.8028C55.7511 92.4084 55.7092 92.4504 55.7092 92.5022V92.8914C55.7092 92.9432 55.7511 92.9852 55.8028 92.9852Z" fill="#3F3D56"/>
<path d="M53.8842 92.9852H54.6562C54.7079 92.9852 54.7498 92.9432 54.7498 92.8914V92.5022C54.7498 92.4504 54.7079 92.4084 54.6562 92.4084H53.8842C53.8325 92.4084 53.7905 92.4504 53.7905 92.5022V92.8914C53.7905 92.9432 53.8325 92.9852 53.8842 92.9852Z" fill="#3F3D56"/>
<path d="M51.9656 92.9852H52.7376C52.7893 92.9852 52.8312 92.9432 52.8312 92.8914V92.5022C52.8312 92.4504 52.7893 92.4084 52.7376 92.4084H51.9656C51.9139 92.4084 51.8719 92.4504 51.8719 92.5022V92.8914C51.8719 92.9432 51.9139 92.9852 51.9656 92.9852Z" fill="#3F3D56"/>
<path d="M50.0469 92.9852H50.8189C50.8707 92.9852 50.9126 92.9432 50.9126 92.8914V92.5022C50.9126 92.4504 50.8707 92.4084 50.8189 92.4084H50.0469C49.9952 92.4084 49.9533 92.4504 49.9533 92.5022V92.8914C49.9533 92.9432 49.9952 92.9852 50.0469 92.9852Z" fill="#3F3D56"/>
<path d="M48.1283 92.9852H48.9003C48.952 92.9852 48.994 92.9432 48.994 92.8914V92.5022C48.994 92.4504 48.952 92.4084 48.9003 92.4084H48.1283C48.0766 92.4084 48.0346 92.4504 48.0346 92.5022V92.8914C48.0346 92.9432 48.0766 92.9852 48.1283 92.9852Z" fill="#3F3D56"/>
<path d="M46.2097 92.9852H46.9817C47.0334 92.9852 47.0753 92.9432 47.0753 92.8914V92.5022C47.0753 92.4504 47.0334 92.4084 46.9817 92.4084H46.2097C46.1579 92.4084 46.116 92.4504 46.116 92.5022V92.8914C46.116 92.9432 46.1579 92.9852 46.2097 92.9852Z" fill="#3F3D56"/>
<path d="M44.291 92.9852H45.063C45.1147 92.9852 45.1567 92.9432 45.1567 92.8914V92.5022C45.1567 92.4504 45.1147 92.4084 45.063 92.4084H44.291C44.2393 92.4084 44.1974 92.4504 44.1974 92.5022V92.8914C44.1974 92.9432 44.2393 92.9852 44.291 92.9852Z" fill="#3F3D56"/>
<path d="M42.3724 92.9852H43.1444C43.1961 92.9852 43.2381 92.9432 43.2381 92.8914V92.5022C43.2381 92.4504 43.1961 92.4084 43.1444 92.4084H42.3724C42.3207 92.4084 42.2788 92.4504 42.2788 92.5022V92.8914C42.2788 92.9432 42.3207 92.9852 42.3724 92.9852Z" fill="#3F3D56"/>
<path d="M40.4538 92.9852H41.2258C41.2775 92.9852 41.3194 92.9432 41.3194 92.8914V92.5022C41.3194 92.4504 41.2775 92.4084 41.2258 92.4084H40.4538C40.402 92.4084 40.3601 92.4504 40.3601 92.5022V92.8914C40.3601 92.9432 40.402 92.9852 40.4538 92.9852Z" fill="#3F3D56"/>
<path d="M38.5351 92.9852H39.3071C39.3589 92.9852 39.4008 92.9432 39.4008 92.8914V92.5022C39.4008 92.4504 39.3589 92.4084 39.3071 92.4084H38.5351C38.4834 92.4084 38.4415 92.4504 38.4415 92.5022V92.8914C38.4415 92.9432 38.4834 92.9852 38.5351 92.9852Z" fill="#3F3D56"/>
<path d="M36.6165 92.9852H37.3885C37.4402 92.9852 37.4821 92.9432 37.4821 92.8914V92.5022C37.4821 92.4504 37.4402 92.4084 37.3885 92.4084H36.6165C36.5648 92.4084 36.5228 92.4504 36.5228 92.5022V92.8914C36.5228 92.9432 36.5648 92.9852 36.6165 92.9852Z" fill="#3F3D56"/>
<path d="M34.6979 92.9852H35.4699C35.5216 92.9852 35.5635 92.9432 35.5635 92.8914V92.5022C35.5635 92.4504 35.5216 92.4084 35.4699 92.4084H34.6979C34.6462 92.4084 34.6042 92.4504 34.6042 92.5022V92.8914C34.6042 92.9432 34.6462 92.9852 34.6979 92.9852Z" fill="#3F3D56"/>
<path d="M32.7792 92.9852H33.5512C33.603 92.9852 33.6449 92.9432 33.6449 92.8914V92.5022C33.6449 92.4504 33.603 92.4084 33.5512 92.4084H32.7792C32.7275 92.4084 32.6856 92.4504 32.6856 92.5022V92.8914C32.6856 92.9432 32.7275 92.9852 32.7792 92.9852Z" fill="#3F3D56"/>
<path d="M30.8606 92.9852H31.6326C31.6843 92.9852 31.7263 92.9432 31.7263 92.8914V92.5022C31.7263 92.4504 31.6843 92.4084 31.6326 92.4084H30.8606C30.8089 92.4084 30.7669 92.4504 30.7669 92.5022V92.8914C30.7669 92.9432 30.8089 92.9852 30.8606 92.9852Z" fill="#3F3D56"/>
<path d="M28.942 92.9852H29.714C29.7657 92.9852 29.8076 92.9432 29.8076 92.8914V92.5022C29.8076 92.4504 29.7657 92.4084 29.714 92.4084H28.942C28.8902 92.4084 28.8483 92.4504 28.8483 92.5022V92.8914C28.8483 92.9432 28.8902 92.9852 28.942 92.9852Z" fill="#3F3D56"/>
<path d="M27.0233 92.9852H27.7953C27.847 92.9852 27.889 92.9432 27.889 92.8914V92.5022C27.889 92.4504 27.847 92.4084 27.7953 92.4084H27.0233C26.9716 92.4084 26.9297 92.4504 26.9297 92.5022V92.8914C26.9297 92.9432 26.9716 92.9852 27.0233 92.9852Z" fill="#3F3D56"/>
<path d="M39.8782 94.139H47.3654C47.4171 94.139 47.459 94.097 47.459 94.0452V93.656C47.459 93.6042 47.4171 93.5622 47.3654 93.5622H39.8782C39.8264 93.5622 39.7845 93.6042 39.7845 93.656V94.0452C39.7845 94.097 39.8264 94.139 39.8782 94.139Z" fill="#3F3D56"/>
<path d="M18.6367 47.1011H67.6239C67.6748 47.0999 67.7233 47.0789 67.7589 47.0424C67.7945 47.0059 67.8145 46.9569 67.8145 46.9058C67.8145 46.8548 67.7945 46.8057 67.7589 46.7692C67.7233 46.7328 67.6748 46.7117 67.6239 46.7106H18.6367C18.5858 46.7117 18.5373 46.7328 18.5017 46.7692C18.4661 46.8057 18.4461 46.8548 18.4461 46.9058C18.4461 46.9569 18.4661 47.0059 18.5017 47.0424C18.5373 47.0789 18.5858 47.0999 18.6367 47.1011Z" fill="#3F3D56"/>
<path d="M64.2893 45.7137C64.9198 45.7137 65.431 45.19 65.431 44.544C65.431 43.898 64.9198 43.3743 64.2893 43.3743C63.6588 43.3743 63.1476 43.898 63.1476 44.544C63.1476 45.19 63.6588 45.7137 64.2893 45.7137Z" fill="#3F3D56"/>
<path d="M60.3453 45.7137C60.9759 45.7137 61.487 45.19 61.487 44.544C61.487 43.898 60.9759 43.3743 60.3453 43.3743C59.7148 43.3743 59.2037 43.898 59.2037 44.544C59.2037 45.19 59.7148 45.7137 60.3453 45.7137Z" fill="#3F3D56"/>
<path d="M56.4014 45.7137C57.0319 45.7137 57.543 45.19 57.543 44.544C57.543 43.898 57.0319 43.3743 56.4014 43.3743C55.7708 43.3743 55.2597 43.898 55.2597 44.544C55.2597 45.19 55.7708 45.7137 56.4014 45.7137Z" fill="#3F3D56"/>
<path d="M20.8025 43.8769C20.8024 43.9046 20.8077 43.932 20.8181 43.9576C20.8285 43.9831 20.8439 44.0064 20.8633 44.0261C20.8828 44.0457 20.9058 44.0613 20.9313 44.072C20.9567 44.0827 20.984 44.0883 21.0116 44.0884H23.8128C23.8682 44.0871 23.9209 44.0642 23.9596 44.0245C23.9983 43.9848 24.02 43.9314 24.02 43.8759C24.02 43.8204 23.9983 43.7671 23.9596 43.7274C23.9209 43.6877 23.8682 43.6647 23.8128 43.6635H21.0116C20.9557 43.6641 20.9023 43.687 20.8631 43.727C20.824 43.7669 20.8022 43.8209 20.8025 43.8769Z" fill="#3F3D56"/>
<path d="M20.8025 44.675C20.8024 44.7026 20.8077 44.7301 20.8181 44.7557C20.8285 44.7813 20.8439 44.8045 20.8633 44.8242C20.8828 44.8438 20.9058 44.8594 20.9313 44.8701C20.9567 44.8808 20.984 44.8864 21.0116 44.8865H23.8128C23.8682 44.8853 23.921 44.8624 23.9597 44.8226C23.9985 44.7829 24.0202 44.7296 24.0202 44.674C24.0202 44.6185 23.9985 44.5651 23.9597 44.5254C23.921 44.4857 23.8682 44.4628 23.8128 44.4615H21.0116C20.9557 44.4622 20.9023 44.4851 20.8631 44.525C20.824 44.565 20.8022 44.6189 20.8025 44.675Z" fill="#3F3D56"/>
<path d="M20.8025 45.471C20.8022 45.5271 20.824 45.581 20.8631 45.621C20.9023 45.661 20.9557 45.6838 21.0116 45.6845H23.8128C23.8682 45.6832 23.9209 45.6602 23.9596 45.6205C23.9983 45.5808 24.02 45.5275 24.02 45.472C24.02 45.4165 23.9983 45.3632 23.9596 45.3235C23.9209 45.2838 23.8682 45.2608 23.8128 45.2595H21.0116C20.984 45.2596 20.9567 45.2652 20.9313 45.2759C20.9058 45.2866 20.8828 45.3022 20.8633 45.3219C20.8439 45.3415 20.8285 45.3648 20.8181 45.3904C20.8077 45.416 20.8024 45.4434 20.8025 45.471Z" fill="#3F3D56"/>
<path d="M21.6682 51.6384H20.6616C20.3565 51.6384 20.1091 51.8864 20.1091 52.1922C20.1091 52.4981 20.3565 52.746 20.6616 52.746H21.6682C21.9733 52.746 22.2207 52.4981 22.2207 52.1922C22.2207 51.8864 21.9733 51.6384 21.6682 51.6384Z" fill="#E6E6E6"/>
<path d="M33.18 51.6384H32.1734C31.8683 51.6384 31.6209 51.8864 31.6209 52.1922C31.6209 52.4981 31.8683 52.746 32.1734 52.746H33.18C33.4852 52.746 33.7325 52.4981 33.7325 52.1922C33.7325 51.8864 33.4852 51.6384 33.18 51.6384Z" fill="#E6E6E6"/>
<path d="M36.4417 51.6384H35.4351C35.13 51.6384 34.8826 51.8864 34.8826 52.1922C34.8826 52.4981 35.13 52.746 35.4351 52.746H36.4417C36.7468 52.746 36.9942 52.4981 36.9942 52.1922C36.9942 51.8864 36.7468 51.6384 36.4417 51.6384Z" fill="#E6E6E6"/>
<path d="M30.0487 51.5461H23.7929C23.4877 51.5461 23.2403 51.7941 23.2403 52.0999C23.2403 52.4058 23.4877 52.6537 23.7929 52.6537H30.0487C30.3539 52.6537 30.6013 52.4058 30.6013 52.0999C30.6013 51.7941 30.3539 51.5461 30.0487 51.5461Z" fill="#E6E6E6"/>
<path d="M45.3978 51.5461H39.1419C38.8368 51.5461 38.5894 51.7941 38.5894 52.0999C38.5894 52.4058 38.8368 52.6537 39.1419 52.6537H45.3978C45.703 52.6537 45.9504 52.4058 45.9504 52.0999C45.9504 51.7941 45.703 51.5461 45.3978 51.5461Z" fill="#E6E6E6"/>
<path d="M24.738 54.1382H23.7315C23.4263 54.1382 23.1789 54.3861 23.1789 54.692C23.1789 54.9978 23.4263 55.2458 23.7315 55.2458H24.738C25.0432 55.2458 25.2906 54.9978 25.2906 54.692C25.2906 54.3861 25.0432 54.1382 24.738 54.1382Z" fill="#E6E6E6"/>
<path d="M36.2498 54.1382H35.2433C34.9381 54.1382 34.6907 54.3861 34.6907 54.692C34.6907 54.9978 34.9381 55.2458 35.2433 55.2458H36.2498C36.555 55.2458 36.8024 54.9978 36.8024 54.692C36.8024 54.3861 36.555 54.1382 36.2498 54.1382Z" fill="#E6E6E6"/>
<path d="M39.5115 54.1382H38.5049C38.1998 54.1382 37.9524 54.3861 37.9524 54.692C37.9524 54.9978 38.1998 55.2458 38.5049 55.2458H39.5115C39.8166 55.2458 40.064 54.9978 40.064 54.692C40.064 54.3861 39.8166 54.1382 39.5115 54.1382Z" fill="#E6E6E6"/>
<path d="M33.1186 54.0459H26.8627C26.5575 54.0459 26.3102 54.2938 26.3102 54.5997C26.3102 54.9055 26.5575 55.1535 26.8627 55.1535H33.1186C33.4237 55.1535 33.6711 54.9055 33.6711 54.5997C33.6711 54.2938 33.4237 54.0459 33.1186 54.0459Z" fill="#E6E6E6"/>
<path d="M48.4676 54.0459H42.2118C41.9066 54.0459 41.6592 54.2938 41.6592 54.5997C41.6592 54.9055 41.9066 55.1535 42.2118 55.1535H48.4676C48.7728 55.1535 49.0202 54.9055 49.0202 54.5997C49.0202 54.2938 48.7728 54.0459 48.4676 54.0459Z" fill="#E6E6E6"/>
<path d="M27.8078 56.6379H26.8013C26.4961 56.6379 26.2487 56.8859 26.2487 57.1917C26.2487 57.4976 26.4961 57.7455 26.8013 57.7455H27.8078C28.113 57.7455 28.3604 57.4976 28.3604 57.1917C28.3604 56.8859 28.113 56.6379 27.8078 56.6379Z" fill="#E6E6E6"/>
<path d="M39.3196 56.6379H38.3131C38.0079 56.6379 37.7605 56.8859 37.7605 57.1917C37.7605 57.4976 38.0079 57.7455 38.3131 57.7455H39.3196C39.6248 57.7455 39.8722 57.4976 39.8722 57.1917C39.8722 56.8859 39.6248 56.6379 39.3196 56.6379Z" fill="#E6E6E6"/>
<path d="M42.5813 56.6379H41.5747C41.2696 56.6379 41.0222 56.8859 41.0222 57.1917C41.0222 57.4976 41.2696 57.7455 41.5747 57.7455H42.5813C42.8865 57.7455 43.1339 57.4976 43.1339 57.1917C43.1339 56.8859 42.8865 56.6379 42.5813 56.6379Z" fill="#E6E6E6"/>
<path d="M36.1884 56.5457H29.9325C29.6273 56.5457 29.3799 56.7936 29.3799 57.0994C29.3799 57.4053 29.6273 57.6532 29.9325 57.6532H36.1884C36.4935 57.6532 36.7409 57.4053 36.7409 57.0994C36.7409 56.7936 36.4935 56.5457 36.1884 56.5457Z" fill="#E6E6E6"/>
<path d="M51.5374 56.5457H45.2816C44.9764 56.5457 44.729 56.7936 44.729 57.0994C44.729 57.4053 44.9764 57.6532 45.2816 57.6532H51.5374C51.8426 57.6532 52.09 57.4053 52.09 57.0994C52.09 56.7936 51.8426 56.5457 51.5374 56.5457Z" fill="#E6E6E6"/>
<path d="M30.8776 59.1378H29.8711C29.5659 59.1378 29.3185 59.3858 29.3185 59.6916C29.3185 59.9975 29.5659 60.2454 29.8711 60.2454H30.8776C31.1828 60.2454 31.4302 59.9975 31.4302 59.6916C31.4302 59.3858 31.1828 59.1378 30.8776 59.1378Z" fill="#E6E6E6"/>
<path d="M42.3894 59.1378H41.3829C41.0777 59.1378 40.8303 59.3858 40.8303 59.6916C40.8303 59.9975 41.0777 60.2454 41.3829 60.2454H42.3894C42.6946 60.2454 42.942 59.9975 42.942 59.6916C42.942 59.3858 42.6946 59.1378 42.3894 59.1378Z" fill="#E6E6E6"/>
<path d="M45.6511 59.1378H44.6446C44.3394 59.1378 44.092 59.3858 44.092 59.6916C44.092 59.9975 44.3394 60.2454 44.6446 60.2454H45.6511C45.9563 60.2454 46.2037 59.9975 46.2037 59.6916C46.2037 59.3858 45.9563 59.1378 45.6511 59.1378Z" fill="#E6E6E6"/>
<path d="M39.2582 59.0454H33.0023C32.6972 59.0454 32.4498 59.2934 32.4498 59.5992C32.4498 59.9051 32.6972 60.153 33.0023 60.153H39.2582C39.5634 60.153 39.8107 59.9051 39.8107 59.5992C39.8107 59.2934 39.5634 59.0454 39.2582 59.0454Z" fill="#E6E6E6"/>
<path d="M33.18 69.078H32.1734C31.8683 69.078 31.6209 69.3259 31.6209 69.6318C31.6209 69.9376 31.8683 70.1856 32.1734 70.1856H33.18C33.4852 70.1856 33.7325 69.9376 33.7325 69.6318C33.7325 69.3259 33.4852 69.078 33.18 69.078Z" fill="#E6E6E6"/>
<path d="M36.4417 69.078H35.4351C35.13 69.078 34.8826 69.3259 34.8826 69.6318C34.8826 69.9376 35.13 70.1856 35.4351 70.1856H36.4417C36.7468 70.1856 36.9942 69.9376 36.9942 69.6318C36.9942 69.3259 36.7468 69.078 36.4417 69.078Z" fill="#E6E6E6"/>
<path d="M45.3978 69.1703H39.1419C38.8368 69.1703 38.5894 69.4182 38.5894 69.7241C38.5894 70.0299 38.8368 70.2779 39.1419 70.2779H45.3978C45.703 70.2779 45.9504 70.0299 45.9504 69.7241C45.9504 69.4182 45.703 69.1703 45.3978 69.1703Z" fill="#E6E6E6"/>
<path d="M21.6682 69.078H20.6616C20.3565 69.078 20.1091 69.3259 20.1091 69.6318C20.1091 69.9376 20.3565 70.1856 20.6616 70.1856H21.6682C21.9733 70.1856 22.2207 69.9376 22.2207 69.6318C22.2207 69.3259 21.9733 69.078 21.6682 69.078Z" fill="#E6E6E6"/>
<path d="M30.0487 69.1703H23.7929C23.4877 69.1703 23.2403 69.4182 23.2403 69.7241C23.2403 70.0299 23.4877 70.2779 23.7929 70.2779H30.0487C30.3539 70.2779 30.6013 70.0299 30.6013 69.7241C30.6013 69.4182 30.3539 69.1703 30.0487 69.1703Z" fill="#E6E6E6"/>
<path d="M24.738 66.5781H23.7315C23.4263 66.5781 23.1789 66.8261 23.1789 67.1319C23.1789 67.4378 23.4263 67.6857 23.7315 67.6857H24.738C25.0432 67.6857 25.2906 67.4378 25.2906 67.1319C25.2906 66.8261 25.0432 66.5781 24.738 66.5781Z" fill="#E6E6E6"/>
<path d="M36.2498 66.5781H35.2433C34.9381 66.5781 34.6907 66.8261 34.6907 67.1319C34.6907 67.4378 34.9381 67.6857 35.2433 67.6857H36.2498C36.555 67.6857 36.8024 67.4378 36.8024 67.1319C36.8024 66.8261 36.555 66.5781 36.2498 66.5781Z" fill="#E6E6E6"/>
<path d="M39.5115 66.5781H38.5049C38.1998 66.5781 37.9524 66.8261 37.9524 67.1319C37.9524 67.4378 38.1998 67.6857 38.5049 67.6857H39.5115C39.8166 67.6857 40.064 67.4378 40.064 67.1319C40.064 66.8261 39.8166 66.5781 39.5115 66.5781Z" fill="#E6E6E6"/>
<path d="M33.1186 66.6705H26.8627C26.5575 66.6705 26.3102 66.9185 26.3102 67.2243C26.3102 67.5302 26.5575 67.7781 26.8627 67.7781H33.1186C33.4237 67.7781 33.6711 67.5302 33.6711 67.2243C33.6711 66.9185 33.4237 66.6705 33.1186 66.6705Z" fill="#E6E6E6"/>
<path d="M27.8078 64.0784H26.8013C26.4961 64.0784 26.2487 64.3263 26.2487 64.6322C26.2487 64.938 26.4961 65.1859 26.8013 65.1859H27.8078C28.113 65.1859 28.3604 64.938 28.3604 64.6322C28.3604 64.3263 28.113 64.0784 27.8078 64.0784Z" fill="#E6E6E6"/>
<path d="M39.3196 64.0784H38.3131C38.0079 64.0784 37.7605 64.3263 37.7605 64.6322C37.7605 64.938 38.0079 65.1859 38.3131 65.1859H39.3196C39.6248 65.1859 39.8722 64.938 39.8722 64.6322C39.8722 64.3263 39.6248 64.0784 39.3196 64.0784Z" fill="#E6E6E6"/>
<path d="M42.5813 64.0784H41.5747C41.2696 64.0784 41.0222 64.3263 41.0222 64.6322C41.0222 64.938 41.2696 65.1859 41.5747 65.1859H42.5813C42.8865 65.1859 43.1339 64.938 43.1339 64.6322C43.1339 64.3263 42.8865 64.0784 42.5813 64.0784Z" fill="#E6E6E6"/>
<path d="M36.1884 64.1708H29.9325C29.6273 64.1708 29.3799 64.4187 29.3799 64.7246C29.3799 65.0304 29.6273 65.2784 29.9325 65.2784H36.1884C36.4935 65.2784 36.7409 65.0304 36.7409 64.7246C36.7409 64.4187 36.4935 64.1708 36.1884 64.1708Z" fill="#E6E6E6"/>
<path d="M30.8776 61.5786H29.8711C29.5659 61.5786 29.3185 61.8266 29.3185 62.1324C29.3185 62.4383 29.5659 62.6862 29.8711 62.6862H30.8776C31.1828 62.6862 31.4302 62.4383 31.4302 62.1324C31.4302 61.8266 31.1828 61.5786 30.8776 61.5786Z" fill="#E6E6E6"/>
<path d="M42.3894 61.5786H41.3829C41.0777 61.5786 40.8303 61.8266 40.8303 62.1324C40.8303 62.4383 41.0777 62.6862 41.3829 62.6862H42.3894C42.6946 62.6862 42.942 62.4383 42.942 62.1324C42.942 61.8266 42.6946 61.5786 42.3894 61.5786Z" fill="#E6E6E6"/>
<path d="M45.6511 61.5786H44.6446C44.3394 61.5786 44.092 61.8266 44.092 62.1324C44.092 62.4383 44.3394 62.6862 44.6446 62.6862H45.6511C45.9563 62.6862 46.2037 62.4383 46.2037 62.1324C46.2037 61.8266 45.9563 61.5786 45.6511 61.5786Z" fill="#E6E6E6"/>
<path d="M39.2582 61.6709H33.0023C32.6972 61.6709 32.4498 61.9188 32.4498 62.2247C32.4498 62.5305 32.6972 62.7785 33.0023 62.7785H39.2582C39.5634 62.7785 39.8107 62.5305 39.8107 62.2247C39.8107 61.9188 39.5634 61.6709 39.2582 61.6709Z" fill="#E6E6E6"/>
<path d="M18.0493 105.191C18.1663 105.25 18.2852 105.31 18.4023 105.368C21.4337 106.887 23.8589 107.75 27.1762 108.696C27.4563 105.562 27.7268 100.053 27.9897 96.6377C28.0588 95.7513 28.1278 95.0071 28.195 94.4822C28.2119 94.2031 28.2688 93.9278 28.3638 93.6649L28.3523 94.4822L28.3235 96.6377L28.1566 108.965C32.2831 110.06 36.522 110.672 40.7889 110.79C41.0115 110.796 41.2302 110.8 41.4412 110.804C41.5161 110.806 41.589 110.808 41.6619 110.808C41.9017 110.81 42.1396 110.811 42.3794 110.811C46.8759 110.815 51.3562 110.27 55.7216 109.19C55.6276 106.089 55.5336 100.641 55.4434 96.6377C55.4242 95.8551 55.407 95.1263 55.3878 94.4822C55.3513 93.1053 55.313 92.1131 55.2765 91.7805C55.3088 91.8394 55.3339 91.902 55.3513 91.967C55.529 92.7962 55.6502 93.6365 55.714 94.4822C55.7811 95.1263 55.8483 95.8551 55.9154 96.6377C56.2723 100.797 56.6445 106.452 57.0282 108.85C59.3122 108.225 61.5534 107.452 63.7377 106.537C64.8889 106.056 66.0196 105.538 67.1298 104.981C66.9188 103.597 66.6981 102.045 66.4717 100.435C66.2952 99.1875 66.1129 97.9049 65.9268 96.6377C65.639 94.6802 61.3624 81.0006 61.0919 80.4815C60.8597 80.0373 60.6391 79.6181 60.43 79.2316C59.9235 78.2932 59.4937 77.5452 59.1752 77.0721C57.8436 75.0478 55.8613 73.5409 53.5574 72.8014L53.4999 72.786L53.4596 72.8033L49.536 71.5957L48.9623 71.4188L48.5766 71.2996L47.2183 70.2631L46.4796 69.6997L45.787 69.1709L44.4324 68.1383L36.046 68.6556L34.4133 72.5956L30.7564 73.9359L30.6931 73.907L30.6374 73.884L30.5799 73.8993C28.2763 74.6395 26.2942 76.1464 24.9621 78.1701C24.7818 78.4412 24.563 78.7989 24.3155 79.2316C24.1045 79.5988 23.8742 80.018 23.6248 80.4815C23.2699 81.141 22.8823 81.8852 22.4717 82.6909C22.3816 82.8678 22.2895 83.0485 22.1974 83.2312C22.0266 83.5696 21.8533 83.9151 21.6774 84.2677C21.2687 85.0849 20.8466 85.9387 20.4245 86.8059C20.0581 87.5577 19.6878 89.1038 19.3232 91.0709C19.022 92.7054 18.7227 94.6321 18.433 96.6377C18.0531 99.2375 18.4579 102.351 18.1145 104.743C18.0934 104.895 18.0704 105.043 18.0493 105.191Z" fill="#3F3D56"/>
<path opacity="0.2" d="M58.2427 91.0624L56.6124 84.7568L55.1729 90.1979L58.2427 91.0624Z" fill="black"/>
<path d="M14.8605 86.9539C15.4437 95.007 14.8394 98.5529 18.0588 105.193C20.9881 106.63 24.0393 107.802 27.1762 108.696C27.5024 108.789 27.8292 108.878 28.1566 108.965C32.2831 110.06 36.522 110.672 40.7889 110.79C41.0114 110.796 41.2302 110.8 41.4412 110.804C41.516 110.806 41.589 110.808 41.6619 110.808C41.9017 110.809 42.1396 110.811 42.3794 110.811C46.8759 110.815 51.3562 110.27 55.7216 109.19C56.1591 109.083 56.5946 108.969 57.0282 108.85C59.3122 108.225 61.5534 107.452 63.7377 106.537C64.8888 106.056 66.0196 105.537 67.1298 104.981C67.3811 104.854 67.6325 104.727 67.88 104.597C69.152 102.354 69.8754 99.6278 69.8907 96.3511C69.0101 90.7055 16.806 82.0851 14.8605 86.9539Z" fill="#2F2E41"/>
<path opacity="0.2" d="M14.862 88.3331C14.8322 87.8345 14.7989 87.3195 14.76 86.7832C16.7055 81.9144 68.9096 90.5348 69.7903 96.1805C69.7879 96.6981 69.7658 97.2004 69.7286 97.6908C67.596 92.1186 18.0014 83.9254 14.862 88.3331Z" fill="black"/>
<path d="M3.03196 90.9893C3.11649 91.2359 3.27684 91.4494 3.48998 91.599C3.70312 91.7487 3.95809 91.8267 4.21827 91.8221L9.30108 91.691C9.56318 91.6859 9.81658 91.5959 10.0234 91.4345C10.2302 91.2731 10.3794 91.0489 10.4486 90.7955L11.1679 83.0871C11.4231 83.2029 11.7009 83.2602 11.981 83.2545C12.4722 83.2419 12.9383 83.0342 13.2769 82.6772C13.6154 82.3202 13.7986 81.8431 13.7863 81.3507C13.774 80.8584 13.5671 80.3911 13.2111 80.0516C12.8551 79.7121 12.3792 79.5281 11.8879 79.5401C11.776 79.5398 11.6643 79.5514 11.5548 79.5749C11.4358 79.4458 11.291 79.3431 11.13 79.2734C10.9689 79.2038 10.7951 79.1687 10.6197 79.1705L2.80113 79.3728C2.73628 79.3752 2.67175 79.3832 2.60827 79.3968C2.43681 79.4288 2.27419 79.4973 2.13135 79.5976C1.98851 79.6979 1.86876 79.8277 1.78017 79.9783C1.69158 80.1289 1.63621 80.2967 1.61777 80.4706C1.59934 80.6444 1.61827 80.8202 1.67329 80.986L3.03196 90.9893ZM11.3154 82.5637L11.8272 80.7268C11.8854 80.5146 11.8868 80.2908 11.8311 80.0779C11.8559 80.0778 11.8778 80.066 11.9027 80.066C12.2536 80.0587 12.5931 80.1912 12.8467 80.4344C13.1003 80.6776 13.2474 81.0117 13.2556 81.3634C13.2638 81.7151 13.1325 82.0557 12.8906 82.3106C12.6486 82.5654 12.3156 82.7137 11.9648 82.7229C11.7379 82.73 11.5134 82.675 11.3154 82.5637Z" fill="#2F2E41"/>
<path d="M2.60828 79.3968C2.77485 80.3514 4.64761 81.0224 6.89946 80.9058C8.97019 80.8101 10.6633 80.0814 10.9735 79.2177C10.8587 79.1837 10.7394 79.1678 10.6197 79.1705L2.80114 79.3728C2.73628 79.3752 2.67175 79.3832 2.60828 79.3968Z" fill="#3F3D56"/>
<path d="M7.31218 86.7534C7.32247 86.7508 7.33226 86.7465 7.34113 86.7407L8.44495 86.0166C8.45829 86.0078 8.46926 85.9959 8.47685 85.9819C8.48444 85.9679 8.48843 85.9521 8.48843 85.9362C8.48844 85.9202 8.48447 85.9045 8.47688 85.8905C8.4693 85.8764 8.45835 85.8645 8.44502 85.8558L7.29771 85.1026C7.28718 85.0956 7.27538 85.0908 7.26298 85.0884C7.25059 85.086 7.23784 85.0861 7.22548 85.0886C7.21311 85.0912 7.20137 85.0962 7.19092 85.1033C7.18048 85.1104 7.17154 85.1195 7.16462 85.1301C7.15769 85.1407 7.15293 85.1525 7.15059 85.165C7.14825 85.1774 7.14838 85.1902 7.15098 85.2025C7.15358 85.2149 7.15859 85.2267 7.16573 85.2371C7.17287 85.2475 7.182 85.2565 7.19259 85.2633L8.21731 85.936L7.23613 86.5798C7.21713 86.5922 7.20315 86.6111 7.19668 86.6329C7.19021 86.6547 7.19167 86.6781 7.20079 86.6989C7.20991 86.7197 7.22611 86.7366 7.24651 86.7466C7.2669 86.7566 7.29018 86.759 7.31218 86.7534Z" fill="#008EDD"/>
<path d="M5.56876 86.834C5.58729 86.8293 5.60399 86.8192 5.61673 86.8049C5.62946 86.7906 5.63766 86.7728 5.64026 86.7539C5.64286 86.7349 5.63974 86.7156 5.63131 86.6984C5.62288 86.6812 5.60952 86.6669 5.59295 86.6574L4.57549 86.0728L5.55891 85.3407C5.56901 85.3331 5.57753 85.3237 5.584 85.3129C5.59046 85.302 5.59473 85.29 5.59657 85.2776C5.5984 85.2651 5.59777 85.2524 5.5947 85.2401C5.59163 85.2279 5.58618 85.2164 5.57867 85.2063C5.57117 85.1961 5.56174 85.1876 5.55094 85.1811C5.54013 85.1746 5.52816 85.1703 5.51571 85.1685C5.50325 85.1667 5.49056 85.1673 5.47835 85.1704C5.46614 85.1735 5.45466 85.1789 5.44455 85.1864L4.34352 86.0061C4.33073 86.0156 4.3205 86.0282 4.31376 86.0426C4.30702 86.0571 4.30398 86.073 4.30491 86.0889C4.30585 86.1049 4.31073 86.1203 4.31912 86.1339C4.32751 86.1474 4.33914 86.1587 4.35296 86.1666L5.49747 86.8242C5.51906 86.8366 5.54463 86.8401 5.56876 86.834Z" fill="#008EDD"/>
<path d="M7.20238 87.3881C7.21166 87.3857 7.22053 87.382 7.22866 87.3769C7.23944 87.3704 7.24882 87.3618 7.25626 87.3516C7.26371 87.3414 7.26908 87.3298 7.27207 87.3175C7.27505 87.3053 7.27559 87.2925 7.27366 87.2801C7.27173 87.2676 7.26736 87.2556 7.2608 87.2448L5.69606 84.6665C5.68276 84.6448 5.66144 84.6293 5.63676 84.6234C5.61208 84.6174 5.58606 84.6215 5.56438 84.6348C5.54271 84.648 5.52715 84.6693 5.5211 84.694C5.51506 84.7187 5.51902 84.7448 5.53213 84.7666L7.09687 87.3449C7.10755 87.3624 7.12356 87.3761 7.14254 87.3839C7.16153 87.3916 7.1825 87.3931 7.20238 87.3881Z" fill="#008EDD"/>
<path d="M128.737 76.5674H111.661V91.5661H128.737V76.5674Z" fill="#3F3D56"/>
<path d="M131.268 55.6173C130.951 57.4977 131.229 59.4301 132.063 61.1443C132.372 61.7747 132.754 62.5342 132.378 63.1269C132.273 63.2751 132.135 63.3977 131.977 63.4859C131.818 63.5741 131.641 63.6256 131.46 63.6367C131.098 63.656 130.735 63.6089 130.389 63.4977" fill="#CCCCCC"/>
<path d="M116.266 49.839C116.584 49.839 116.841 49.6238 116.841 49.3583C116.841 49.0928 116.584 48.8776 116.266 48.8776C115.948 48.8776 115.69 49.0928 115.69 49.3583C115.69 49.6238 115.948 49.839 116.266 49.839Z" fill="#3F3D56"/>
<path d="M118.376 50.0313C118.694 50.0313 118.952 49.816 118.952 49.5506C118.952 49.2851 118.694 49.0698 118.376 49.0698C118.058 49.0698 117.801 49.2851 117.801 49.5506C117.801 49.816 118.058 50.0313 118.376 50.0313Z" fill="#3F3D56"/>
<path d="M120.487 50.9927C120.805 50.9927 121.062 50.7775 121.062 50.512C121.062 50.2465 120.805 50.0312 120.487 50.0312C120.169 50.0312 119.911 50.2465 119.911 50.512C119.911 50.7775 120.169 50.9927 120.487 50.9927Z" fill="#3F3D56"/>
<path d="M122.981 50.4159C123.299 50.4159 123.557 50.2007 123.557 49.9352C123.557 49.6697 123.299 49.4545 122.981 49.4545C122.663 49.4545 122.405 49.6697 122.405 49.9352C122.405 50.2007 122.663 50.4159 122.981 50.4159Z" fill="#3F3D56"/>
<path d="M70.5879 59.5272C73.3835 58.7494 76.4971 59.583 78.6574 61.4924C79.823 62.5297 80.6784 63.8709 81.1283 65.3667C81.6799 67.1471 81.7711 69.0251 81.8289 70.8758C81.8928 72.9221 81.9482 74.9686 82.0077 77.0151C82.0644 78.9663 82.0711 80.9266 82.201 82.8746C82.31 84.5091 82.571 86.206 83.4439 87.6238C84.2531 88.9381 85.5316 89.8256 86.9764 90.3148C88.4409 90.8106 90.0195 90.926 91.5557 90.9159C93.3436 90.9102 95.1284 90.7686 96.8948 90.4923C100.25 89.9536 103.564 88.5796 105.613 85.7449C106.557 84.4577 107.087 82.9132 107.133 81.3167C107.176 79.4563 106.583 77.6544 105.934 75.9361C105.302 74.2639 104.618 72.6164 104.218 70.8681C103.846 69.232 103.669 67.5575 103.69 65.8796C103.724 62.5228 104.527 59.2187 106.036 56.2218C106.8 54.6827 107.769 53.2546 108.917 51.977C110.101 50.6864 111.566 49.6209 113.309 49.2716C114.159 49.095 115.04 49.1305 115.874 49.375C116.229 49.4817 116.381 48.9251 116.027 48.8187C114.3 48.3006 112.425 48.6946 110.894 49.5938C109.389 50.4779 108.2 51.8043 107.19 53.2106C105.251 55.9679 103.96 59.1296 103.414 62.4584C102.868 65.7873 103.081 69.1968 104.038 72.4311C105.062 75.7941 107.29 79.2947 106.333 82.9342C105.495 86.1199 102.593 88.2847 99.5956 89.2627C97.7768 89.856 95.87 90.107 93.968 90.2368C92.3606 90.3466 90.7314 90.4164 89.1287 90.2093C87.6566 90.0192 86.1424 89.5682 85.001 88.5778C83.7499 87.4922 83.1781 85.9323 82.9292 84.3314C82.6476 82.5201 82.689 80.6524 82.6359 78.8247L82.4546 72.5862C82.3521 69.0627 82.4404 65.1578 80.1531 62.2382C79.2386 61.1006 78.0773 60.187 76.7575 59.5669C75.4377 58.9468 73.9942 58.6366 72.5368 58.6598C71.826 58.6761 71.12 58.7807 70.4349 58.9709C70.3637 58.9933 70.3039 59.0425 70.2682 59.1082C70.2324 59.174 70.2235 59.251 70.2434 59.3231C70.2632 59.3953 70.3103 59.4569 70.3745 59.4949C70.4388 59.533 70.5153 59.5446 70.5879 59.5272Z" fill="#3F3D56"/>
<path d="M29.7273 55.8777C30.1347 58.7833 31.6764 61.4079 34.0136 63.1748C36.3508 64.9418 39.2923 65.7066 42.1917 65.3012C45.0912 64.8957 47.7115 63.3533 49.4769 61.0127C51.2423 58.6721 52.0084 55.7248 51.6068 52.8184L51.5849 52.6614C51.1177 49.7942 49.5447 47.226 47.2051 45.5108C44.8656 43.7956 41.947 43.0708 39.0791 43.4928C36.2111 43.9149 33.6236 45.4498 31.8748 47.7667C30.1259 50.0835 29.3558 52.9965 29.7307 55.8773L29.7273 55.8777Z" fill="#FFB6B6"/>
<path d="M39.4647 65.0316C38.8936 63.8787 38.3068 62.6408 38.4619 61.3631C38.617 60.0853 39.8627 58.8604 41.0912 59.2358C41.8258 59.4603 42.3828 60.1847 43.15 60.2193C44.2057 60.2669 44.8068 59.0542 45.1319 58.0466L46.4562 53.9426C49.0105 55.9538 45.7756 53.8453 48.9397 53.1091C50.181 52.8203 51.4342 52.2611 52.1594 51.2109C52.8847 50.1607 52.8748 48.5354 51.8727 47.7465C51.3813 47.3597 50.7285 47.2143 50.2588 46.8013C49.9674 46.5451 49.766 46.2017 49.6845 45.8219C49.603 45.4421 49.6456 45.0461 49.8061 44.6925C49.9666 44.3389 50.2364 44.0464 50.5756 43.8584C50.9148 43.6704 51.3054 43.5969 51.6895 43.6486L48.3192 43.2379L49.3169 41.4151C48.5955 41.9889 47.5892 42.0692 46.6822 41.9086C45.7753 41.7481 44.9204 41.377 44.0329 41.1305C39.7721 39.9473 34.8319 42.046 32.7173 45.9374C31.8873 45.6627 30.9937 45.6473 30.1548 45.8931C29.3159 46.139 28.5713 46.6344 28.0197 47.3139C27.1217 48.4642 26.8815 49.9959 26.8515 51.4561C26.7955 54.3352 27.4313 57.1855 28.7053 59.7666C29.1024 60.5688 29.5717 61.3556 30.2466 61.9424C30.9216 62.5291 38.5488 65.7795 39.4291 65.6262" fill="#2F2E41"/>
<path d="M119.144 57.4345C119.145 57.9336 119.081 58.4308 118.954 58.9132V58.9152C118.952 58.9248 118.948 58.9344 118.946 58.944C118.559 60.3727 117.634 61.3765 116.554 61.3765C115.479 61.3765 114.558 60.3804 114.165 58.9632C114.138 58.8652 114.115 58.7671 114.094 58.6652C114.067 58.5517 114.046 58.4344 114.029 58.3133C114.013 58.2171 114.002 58.1191 113.992 58.0191C113.979 57.8806 113.969 57.7422 113.967 57.598V57.596C113.963 57.5422 113.963 57.4884 113.963 57.4345V57.3864L113.965 57.3845C113.966 57.1408 113.982 56.8974 114.013 56.6557C114.027 56.5538 114.042 56.4558 114.061 56.3577C114.084 56.2385 114.109 56.1212 114.14 56.0058C114.165 55.9039 114.194 55.8058 114.224 55.7077C114.267 55.577 114.313 55.4501 114.364 55.3289C114.397 55.2501 114.432 55.1732 114.466 55.0982C114.938 54.1252 115.698 53.4926 116.554 53.4926C117.737 53.4926 118.735 54.7021 119.044 56.3519C119.048 56.3769 119.054 56.4019 119.055 56.4269V56.4288C119.115 56.7608 119.144 57.0973 119.144 57.4345Z" fill="#E6E6E6"/>
<path d="M114.491 55.1828C114.49 55.218 114.477 55.2518 114.454 55.2784C114.431 55.3051 114.399 55.3229 114.364 55.3289C114.397 55.2501 114.432 55.1731 114.466 55.0981C114.482 55.1235 114.491 55.1528 114.491 55.1828Z" fill="#008EDD"/>
<path d="M116.759 55.0076H115.071C114.989 55.0076 114.922 55.0745 114.922 55.157C114.922 55.2396 114.989 55.3065 115.071 55.3065H116.759C116.842 55.3065 116.909 55.2396 116.909 55.157C116.909 55.0745 116.842 55.0076 116.759 55.0076Z" fill="#008EDD"/>
<path d="M114.439 55.8558C114.439 55.8956 114.423 55.9337 114.395 55.9618C114.367 55.9899 114.329 56.0058 114.29 56.0058H114.14C114.165 55.9039 114.194 55.8058 114.224 55.7078H114.29C114.329 55.7077 114.367 55.7232 114.395 55.751C114.423 55.7787 114.439 55.8164 114.439 55.8558Z" fill="#008EDD"/>
<path d="M115.171 55.7072H114.899C114.817 55.7072 114.75 55.7741 114.75 55.8566C114.75 55.9392 114.817 56.0061 114.899 56.0061H115.171C115.253 56.0061 115.32 55.9392 115.32 55.8566C115.32 55.7741 115.253 55.7072 115.171 55.7072Z" fill="#008EDD"/>
<path d="M117.588 55.6823H115.9C115.817 55.6823 115.75 55.7492 115.75 55.8317C115.75 55.9143 115.817 55.9812 115.9 55.9812H117.588C117.67 55.9812 117.737 55.9143 117.737 55.8317C117.737 55.7492 117.67 55.6823 117.588 55.6823Z" fill="#008EDD"/>
<path d="M115.119 56.3818H114.847C114.765 56.3818 114.698 56.4487 114.698 56.5313C114.698 56.6138 114.765 56.6808 114.847 56.6808H115.119C115.201 56.6808 115.268 56.6138 115.268 56.5313C115.268 56.4487 115.201 56.3818 115.119 56.3818Z" fill="#008EDD"/>
<path d="M115.999 56.3818H115.728C115.645 56.3818 115.578 56.4487 115.578 56.5313C115.578 56.6138 115.645 56.6808 115.728 56.6808H115.999C116.082 56.6808 116.148 56.6138 116.148 56.5313C116.148 56.4487 116.082 56.3818 115.999 56.3818Z" fill="#008EDD"/>
<path d="M114.424 56.5057C114.424 56.5455 114.408 56.5836 114.38 56.6117C114.352 56.6398 114.314 56.6557 114.274 56.6557H114.013C114.027 56.5538 114.042 56.4557 114.061 56.3577H114.274C114.294 56.3575 114.313 56.3612 114.331 56.3685C114.349 56.3759 114.366 56.3867 114.38 56.4005C114.394 56.4143 114.405 56.4306 114.412 56.4487C114.42 56.4668 114.424 56.4861 114.424 56.5057Z" fill="#008EDD"/>
<path d="M118.416 56.3569H116.728C116.646 56.3569 116.579 56.4239 116.579 56.5064C116.579 56.5889 116.646 56.6559 116.728 56.6559H118.416C118.499 56.6559 118.566 56.5889 118.566 56.5064C118.566 56.4239 118.499 56.3569 118.416 56.3569Z" fill="#008EDD"/>
<path d="M114.491 57.4902C114.491 57.5098 114.487 57.5292 114.479 57.5472C114.472 57.5653 114.461 57.5817 114.447 57.5954C114.433 57.6092 114.417 57.6201 114.398 57.6274C114.38 57.6348 114.361 57.6384 114.341 57.6383H114.071C114.032 57.6384 113.995 57.624 113.967 57.5979V57.596C113.963 57.5421 113.963 57.4883 113.963 57.4344V57.3864L113.965 57.3844C113.979 57.3704 113.995 57.3593 114.014 57.3517C114.032 57.3441 114.051 57.3402 114.071 57.3402H114.341C114.381 57.3403 114.419 57.3561 114.447 57.3842C114.475 57.4123 114.491 57.4504 114.491 57.4902Z" fill="#CCCCCC"/>
<path d="M116.759 57.3151H115.071C114.989 57.3151 114.922 57.382 114.922 57.4645C114.922 57.5471 114.989 57.614 115.071 57.614H116.759C116.842 57.614 116.909 57.5471 116.909 57.4645C116.909 57.382 116.842 57.3151 116.759 57.3151Z" fill="#CCCCCC"/>
<path d="M114.439 58.1632C114.439 58.203 114.423 58.2411 114.395 58.2692C114.367 58.2973 114.329 58.3132 114.29 58.3132H114.029C114.013 58.2171 114.002 58.119 113.992 58.019C114.001 58.0159 114.01 58.0145 114.019 58.0152H114.29C114.329 58.0151 114.367 58.0306 114.395 58.0584C114.423 58.0861 114.439 58.1238 114.439 58.1632Z" fill="#CCCCCC"/>
<path d="M115.171 58.0146H114.899C114.817 58.0146 114.75 58.0816 114.75 58.1641C114.75 58.2467 114.817 58.3136 114.899 58.3136H115.171C115.253 58.3136 115.32 58.2467 115.32 58.1641C115.32 58.0816 115.253 58.0146 115.171 58.0146Z" fill="#CCCCCC"/>
<path d="M117.588 57.9897H115.9C115.817 57.9897 115.75 58.0567 115.75 58.1392C115.75 58.2218 115.817 58.2887 115.9 58.2887H117.588C117.67 58.2887 117.737 58.2218 117.737 58.1392C117.737 58.0567 117.67 57.9897 117.588 57.9897Z" fill="#CCCCCC"/>
<path d="M115.119 58.6893H114.847C114.765 58.6893 114.698 58.7562 114.698 58.8388C114.698 58.9213 114.765 58.9883 114.847 58.9883H115.119C115.201 58.9883 115.268 58.9213 115.268 58.8388C115.268 58.7562 115.201 58.6893 115.119 58.6893Z" fill="#CCCCCC"/>
<path d="M115.999 58.6893H115.728C115.645 58.6893 115.578 58.7562 115.578 58.8388C115.578 58.9213 115.645 58.9883 115.728 58.9883H115.999C116.082 58.9883 116.148 58.9213 116.148 58.8388C116.148 58.7562 116.082 58.6893 115.999 58.6893Z" fill="#CCCCCC"/>
<path d="M114.424 58.8132C114.424 58.853 114.408 58.8911 114.38 58.9192C114.352 58.9473 114.314 58.9632 114.274 58.9632H114.165C114.138 58.8651 114.115 58.7671 114.094 58.6652H114.274C114.294 58.665 114.313 58.6687 114.331 58.676C114.349 58.6834 114.366 58.6942 114.38 58.708C114.394 58.7218 114.405 58.7381 114.412 58.7562C114.42 58.7743 114.424 58.7936 114.424 58.8132Z" fill="#CCCCCC"/>
<path d="M118.416 58.6644H116.728C116.646 58.6644 116.579 58.7313 116.579 58.8139C116.579 58.8964 116.646 58.9634 116.728 58.9634H118.416C118.499 58.9634 118.566 58.8964 118.566 58.8139C118.566 58.7313 118.499 58.6644 118.416 58.6644Z" fill="#CCCCCC"/>
</g>
<defs>
<clipPath id="clip0_205_387">
<rect width="141.752" height="110.811" fill="white" transform="translate(-0.00509644)"/>
</clipPath>
</defs>
</svg>
