<svg width="75" height="75" viewBox="0 0 75 75" fill="none" xmlns="http://www.w3.org/2000/svg">
<circle cx="37.5" cy="37.5" r="37.5" fill="#4CAF50" fill-opacity="0.1"/>
<path d="M21.5892 61.7488C21.5658 61.8045 21.5395 61.8588 21.5103 61.9117C21.3574 62.1939 21.1413 62.437 20.8789 62.622C20.5683 62.8406 20.2035 62.9698 19.8245 62.9953C19.4454 63.0208 19.0666 62.9417 18.7294 62.7667C18.3922 62.5917 18.1096 62.3274 17.9123 62.0028C17.715 61.6781 17.6107 61.3055 17.6107 60.9255V60.5908H17.8949C18.9987 61.3043 20.2756 61.7046 21.5892 61.7488Z" fill="#3F3D56"/>
<path d="M25.6434 60.6888V60.9256C25.6436 61.3865 25.4901 61.8344 25.2074 62.1984C24.9246 62.5625 24.5286 62.8219 24.0819 62.9357C23.6353 63.0496 23.1634 63.0114 22.7409 62.8271C22.3184 62.6429 21.9693 62.3231 21.7487 61.9183C21.7184 61.8642 21.6909 61.8085 21.6665 61.7514C21.7272 61.753 21.787 61.7539 21.8476 61.7539C23.1869 61.7554 24.5005 61.3868 25.6434 60.6888Z" fill="#3F3D56"/>
<path d="M28.4381 35.6512C28.3758 35.642 28.3126 35.6362 28.2495 35.6321C28.967 37.2855 29.0167 39.1525 28.3882 40.8418C28.4514 40.8343 28.5137 40.8244 28.576 40.8127C29.1844 40.6948 29.7312 40.3649 30.1192 39.8816C30.5071 39.3983 30.7109 38.793 30.6943 38.1735C30.6778 37.554 30.4419 36.9605 30.0288 36.4986C29.6156 36.0367 29.0519 35.7364 28.4381 35.6512Z" fill="#3F3D56"/>
<path d="M15.4458 35.6321C15.3826 35.6362 15.3195 35.642 15.2572 35.6512C14.6434 35.7364 14.0797 36.0367 13.6665 36.4986C13.2533 36.9605 13.0175 37.554 13.0009 38.1735C12.9844 38.793 13.1882 39.3983 13.5761 39.8816C13.964 40.3649 14.5109 40.6948 15.1193 40.8127C15.1816 40.8244 15.2439 40.8343 15.307 40.8418C14.6786 39.1525 14.7283 37.2855 15.4458 35.6321Z" fill="#3F3D56"/>
<path d="M28.4381 35.6512C27.7537 34.0164 26.486 32.6943 24.8814 31.9419C23.2768 31.1895 21.4498 31.0603 19.7553 31.5796C18.0608 32.0989 16.6198 33.2296 15.7123 34.7519C14.8048 36.2742 14.4956 38.0795 14.8447 39.817C15.1938 41.5546 16.1763 43.1003 17.6013 44.154C19.0264 45.2076 20.7922 45.694 22.5558 45.5185C24.3194 45.343 25.9548 44.5182 27.1442 43.2044C28.3337 41.8906 28.9924 40.1816 28.9922 38.4093C28.9919 37.4623 28.8035 36.5248 28.4381 35.6512ZM28.3882 40.8418C27.7805 42.4753 26.5834 43.8222 25.0325 44.6174C23.4815 45.4126 21.6891 45.5984 20.008 45.1384C18.3269 44.6784 16.8789 43.6057 15.9489 42.1316C15.019 40.6575 14.6745 38.8887 14.9832 37.1734C15.292 35.458 16.2316 33.9204 17.6172 32.863C19.0027 31.8057 20.7339 31.3053 22.4699 31.4603C24.2059 31.6153 25.821 32.4144 26.9974 33.7005C28.1737 34.9866 28.8261 36.6664 28.8261 38.4093C28.8258 39.2397 28.6775 40.0634 28.3882 40.8418Z" fill="#3F3D56"/>
<path d="M25.503 36.7893H18.1923C17.8067 36.7893 17.4369 36.9425 17.1643 37.2151C16.8916 37.4878 16.7384 37.8576 16.7384 38.2432C16.7384 38.6287 16.8916 38.9985 17.1643 39.2712C17.4369 39.5438 17.8067 39.697 18.1923 39.697H25.503C25.8886 39.697 26.2584 39.5438 26.531 39.2712C26.8037 38.9985 26.9568 38.6287 26.9568 38.2432C26.9568 37.8576 26.8037 37.4878 26.531 37.2151C26.2584 36.9425 25.8886 36.7893 25.503 36.7893Z" fill="#3F3D56"/>
<path d="M28.3883 50.8242C28.3616 50.7752 28.3342 50.727 28.306 50.6797C28.3052 50.678 28.3043 50.6772 28.3035 50.6755C27.6498 49.5566 26.7164 48.6268 25.5949 47.9775C24.4734 47.3282 23.2023 46.9816 21.9065 46.9718C20.6106 46.9621 19.3344 47.2894 18.2033 47.9218C17.0721 48.5541 16.1248 49.4697 15.4543 50.5787C14.7838 51.6877 14.4132 52.9519 14.3789 54.2474C14.3445 55.5429 14.6476 56.825 15.2584 57.9679C15.8692 59.1109 16.7666 60.0754 17.8627 60.7668C18.9588 61.4582 20.2158 61.8528 21.5103 61.9117C21.5892 61.9158 21.669 61.9183 21.7487 61.9183C21.782 61.92 21.8144 61.9199 21.8476 61.9199C23.1832 61.9219 24.4946 61.5634 25.6434 60.8823C26.8913 60.1438 27.8992 59.0605 28.5461 57.7628C28.5469 57.7611 28.5478 57.7603 28.5486 57.7586C28.5735 57.7088 28.5976 57.6581 28.6217 57.6066C29.1213 56.538 29.3607 55.3663 29.3201 54.1874C29.2795 53.0085 28.9602 51.8559 28.3883 50.8242ZM28.4597 57.5609C28.4356 57.6124 28.4107 57.6631 28.3849 57.7129C27.767 58.9415 26.8172 59.9724 25.6434 60.6888C24.5005 61.3868 23.1869 61.7554 21.8476 61.7539C21.787 61.7539 21.7272 61.753 21.6665 61.7514C21.6408 61.7514 21.615 61.7505 21.5892 61.7488C20.3208 61.7045 19.0858 61.3307 18.0056 60.6642C16.9255 59.9977 16.0375 59.0614 15.429 57.9476C14.8205 56.8337 14.5125 55.5806 14.5353 54.3116C14.5581 53.0426 14.9108 51.8014 15.5589 50.7101C16.2069 49.6188 17.128 48.715 18.2313 48.0877C19.3346 47.4604 20.5823 47.1311 21.8515 47.1323C23.1207 47.1335 24.3678 47.4652 25.4699 48.0946C26.5721 48.724 27.4914 49.6295 28.1374 50.7221C28.1382 50.7237 28.139 50.7246 28.1398 50.7262C28.1689 50.7736 28.1972 50.8217 28.2238 50.8699C28.7939 51.8855 29.1128 53.0228 29.1538 54.1868C29.1949 55.3508 28.9569 56.5077 28.4597 57.5609Z" fill="#3F3D56"/>
<path d="M27.594 51.0453C27.4485 50.9415 27.2743 50.8855 27.0956 50.8849H23.8282C23.6006 50.8849 23.3823 50.9753 23.2213 51.1363C23.0604 51.2972 22.97 51.5155 22.97 51.7431C22.97 51.9707 23.0604 52.189 23.2213 52.3499C23.3823 52.5109 23.6006 52.6013 23.8282 52.6013H27.0956C27.1539 52.6015 27.2121 52.5956 27.2692 52.5838C27.3261 52.5716 27.3817 52.554 27.4353 52.5315C27.575 52.4713 27.6962 52.3751 27.7864 52.2526C27.8767 52.1302 27.9328 51.986 27.9489 51.8347C27.9651 51.6835 27.9407 51.5307 27.8783 51.392C27.816 51.2532 27.7179 51.1336 27.594 51.0453Z" fill="#3F3D56"/>
<path d="M24.0457 52.1788C24.2863 52.1788 24.4814 51.9837 24.4814 51.7431C24.4814 51.5025 24.2863 51.3074 24.0457 51.3074C23.8051 51.3074 23.61 51.5025 23.61 51.7431C23.61 51.9837 23.8051 52.1788 24.0457 52.1788Z" fill="#F1F1F1"/>
<path d="M25.4617 52.1788C25.7023 52.1788 25.8974 51.9837 25.8974 51.7431C25.8974 51.5025 25.7023 51.3074 25.4617 51.3074C25.2211 51.3074 25.026 51.5025 25.026 51.7431C25.026 51.9837 25.2211 52.1788 25.4617 52.1788Z" fill="#F1F1F1"/>
<path d="M26.8777 52.1788C27.1183 52.1788 27.3134 51.9837 27.3134 51.7431C27.3134 51.5025 27.1183 51.3074 26.8777 51.3074C26.6371 51.3074 26.442 51.5025 26.442 51.7431C26.442 51.9837 26.6371 52.1788 26.8777 52.1788Z" fill="#008EDD"/>
<path d="M43.2872 37.3835C42.1542 38.063 40.1355 38.9144 38.0727 38.0394L36.7392 37.4738L39.4114 34.4783C37.279 32.1271 36.0993 29.0657 36.1025 25.8915C36.1058 22.7174 37.2917 19.6584 39.4289 17.3116C41.5661 14.9648 44.5012 13.4987 47.6612 13.1993C50.8212 12.9 53.9793 13.789 56.5191 15.6928C59.0589 17.5965 60.7982 20.3785 61.3974 23.4955C61.9965 26.6126 61.4126 29.8411 59.7596 32.5508C58.1066 35.2605 55.5032 37.257 52.4574 38.1506C49.4116 39.0442 46.1422 38.7707 43.2872 37.3835Z" fill="white"/>
<path d="M43.2942 37.5449C42.2055 38.1841 40.1315 39.0675 38.017 38.1705L36.5006 37.5273L39.2202 34.4786C37.5281 32.5752 36.437 30.2137 36.0843 27.6914C35.7317 25.1691 36.1333 22.5988 37.2386 20.3043C38.3438 18.0098 40.1033 16.0937 42.2955 14.7972C44.4876 13.5007 47.0144 12.8819 49.5576 13.0186C52.1007 13.1554 54.5465 14.0416 56.587 15.5657C58.6275 17.0897 60.1714 19.1835 61.0242 21.5833C61.8771 23.9831 62.0007 26.5816 61.3797 29.0515C60.7586 31.5215 59.4205 33.7524 57.534 35.4634C55.6394 37.1921 53.2707 38.3142 50.7329 38.6852C48.1951 39.0561 45.6043 38.659 43.2942 37.5449ZM58.2124 17.4266C57.0992 16.1986 55.755 15.2018 54.2565 14.4934C52.758 13.7849 51.1347 13.3786 49.4791 13.2976C47.8236 13.2166 46.1683 13.4625 44.6079 14.0214C43.0474 14.5802 41.6123 15.4409 40.3845 16.5545C39.1568 17.668 38.1604 19.0125 37.4523 20.5111C36.7442 22.0098 36.3383 23.6332 36.2577 25.2888C36.1771 26.9443 36.4235 28.5996 36.9827 30.1599C37.5419 31.7202 38.403 33.1551 39.5169 34.3826L39.6029 34.4775L36.9778 37.4203L38.1283 37.9083C40.1704 38.7746 42.1912 37.8747 43.214 37.2613L43.2801 37.2216L43.3495 37.2553C45.9861 38.5365 48.9865 38.8597 51.8355 38.1697C54.6845 37.4796 57.2044 35.8192 58.9626 33.4736C60.7207 31.128 61.6075 28.2435 61.4706 25.3154C61.3338 22.3872 60.1818 19.598 58.2124 17.4266Z" fill="#008EDD"/>
<path d="M59.6386 25.8251C59.6384 22.8901 58.5393 20.0615 56.5578 17.8963C54.5762 15.7312 51.8558 14.3865 48.9323 14.1269C49.2744 14.097 49.6204 14.0808 49.9703 14.0808C53.0839 14.0826 56.0693 15.3208 58.2702 17.5231C60.4712 19.7254 61.7075 22.7115 61.7075 25.8251C61.7075 28.9387 60.4712 31.9248 58.2702 34.1271C56.0693 36.3294 53.0839 37.5675 49.9703 37.5694C49.6209 37.5694 49.2755 37.553 48.9339 37.5231C51.8571 37.2632 54.5771 35.9183 56.5583 33.7532C58.5395 31.5882 59.6384 28.7598 59.6386 25.8251Z" fill="black" fill-opacity="0.05"/>
<path d="M50.7476 24.8115H41.2014V18.8397H50.7476V24.8115Z" fill="white"/>
<path d="M50.7476 24.8115H41.2014V18.8397H50.7476V24.8115ZM41.2449 24.7679H50.704V18.8833H41.2449V24.7679Z" fill="#3F3D56"/>
<path d="M49.5815 33.0828H44.1328V27.1109H49.5815V33.0828Z" fill="white"/>
<path d="M49.5815 33.0828H44.1328V27.1109H49.5815V33.0828ZM44.1764 33.0392H49.5379V27.1545H44.1764V33.0392Z" fill="#3F3D56"/>
<path d="M48.8405 32.5187H47.7072V32.5646H48.8405V32.5187Z" fill="#3F3D56"/>
<path d="M48.8405 32.6565H47.7072V32.7024H48.8405V32.6565Z" fill="#3F3D56"/>
<path d="M48.8405 32.7944H47.7072V32.8404H48.8405V32.7944Z" fill="#3F3D56"/>
<path d="M46.8572 28.1789V28.6584C47.1417 28.6584 47.4198 28.7428 47.6563 28.9008C47.8929 29.0589 48.0773 29.2836 48.1861 29.5464C48.295 29.8093 48.3235 30.0985 48.268 30.3775C48.2125 30.6566 48.0755 30.9129 47.8743 31.114L48.2134 31.4531C48.4816 31.1849 48.6643 30.8431 48.7383 30.4711C48.8123 30.099 48.7743 29.7134 48.6291 29.3629C48.484 29.0125 48.2381 28.7129 47.9227 28.5022C47.6073 28.2914 47.2365 28.1789 46.8572 28.1789Z" fill="#E6E6E6"/>
<path d="M48.2134 31.4531L47.8743 31.114C47.6284 31.36 47.3016 31.5085 46.9546 31.532C46.6076 31.5555 46.2637 31.4525 45.9869 31.242L45.6966 31.6238C46.0659 31.9045 46.5243 32.0418 46.987 32.0104C47.4498 31.979 47.8854 31.781 48.2134 31.4531Z" fill="#575A89"/>
<path d="M45.4187 30.0969C45.4187 29.908 45.4559 29.7209 45.5282 29.5464C45.6005 29.3719 45.7064 29.2133 45.84 29.0797C45.9736 28.9462 46.1322 28.8402 46.3067 28.7679C46.4812 28.6956 46.6683 28.6584 46.8572 28.6584V28.1789C46.4557 28.1789 46.0643 28.3049 45.7382 28.5392C45.4121 28.7734 45.1677 29.1041 45.0396 29.4846C44.9114 29.8651 44.9058 30.2762 45.0237 30.66C45.1416 31.0438 45.377 31.3809 45.6966 31.6238L45.9869 31.242C45.8102 31.1079 45.6669 30.9348 45.5683 30.7362C45.4697 30.5375 45.4185 30.3187 45.4187 30.0969Z" fill="#008EDD"/>
<path d="M49.4218 23.5626H42.5271C42.5214 23.5626 42.5159 23.5603 42.5118 23.5563C42.5078 23.5522 42.5055 23.5467 42.5055 23.541V20.2364C42.5055 20.2306 42.5078 20.2251 42.5118 20.2211C42.5159 20.217 42.5214 20.2148 42.5271 20.2148C42.5328 20.2148 42.5383 20.217 42.5423 20.2211C42.5464 20.2251 42.5487 20.2306 42.5487 20.2364V23.5194H49.4218C49.4247 23.5194 49.4275 23.52 49.4301 23.521C49.4327 23.5221 49.4351 23.5237 49.4371 23.5257C49.4391 23.5277 49.4407 23.5301 49.4418 23.5327C49.4429 23.5353 49.4435 23.5382 49.4435 23.541C49.4435 23.5438 49.4429 23.5466 49.4418 23.5493C49.4407 23.5519 49.4391 23.5543 49.4371 23.5563C49.4351 23.5583 49.4327 23.5599 49.4301 23.561C49.4275 23.562 49.4247 23.5626 49.4218 23.5626Z" fill="#3F3D56"/>
<path d="M44.0002 23.3253H43.3731C43.3561 23.3253 43.3398 23.3185 43.3278 23.3065C43.3158 23.2945 43.3091 23.2782 43.309 23.2612V22.3968C43.3091 22.3798 43.3158 22.3635 43.3278 22.3515C43.3398 22.3395 43.3561 22.3328 43.3731 22.3327H44.0002C44.0172 22.3328 44.0335 22.3395 44.0455 22.3515C44.0575 22.3635 44.0642 22.3798 44.0642 22.3968V23.2612C44.0642 23.2782 44.0575 23.2945 44.0455 23.3065C44.0335 23.3185 44.0172 23.3253 44.0002 23.3253Z" fill="#008EDD"/>
<path d="M45.1438 23.3252H44.5167C44.4997 23.3252 44.4834 23.3185 44.4714 23.3065C44.4594 23.2945 44.4527 23.2782 44.4526 23.2612V21.5768C44.4527 21.5598 44.4594 21.5435 44.4714 21.5315C44.4834 21.5195 44.4997 21.5128 44.5167 21.5127H45.1438C45.1608 21.5128 45.1771 21.5195 45.1891 21.5315C45.2011 21.5435 45.2078 21.5598 45.2079 21.5768V23.2612C45.2078 23.2782 45.2011 23.2945 45.1891 23.3065C45.1771 23.3185 45.1608 23.3252 45.1438 23.3252Z" fill="#008EDD"/>
<path d="M46.2874 23.3253H45.6603C45.6433 23.3253 45.627 23.3185 45.615 23.3065C45.603 23.2945 45.5963 23.2782 45.5962 23.2612V22.3968C45.5963 22.3798 45.603 22.3635 45.615 22.3515C45.627 22.3395 45.6433 22.3328 45.6603 22.3327H46.2874C46.3044 22.3328 46.3207 22.3395 46.3327 22.3515C46.3447 22.3635 46.3514 22.3798 46.3515 22.3968V23.2612C46.3514 23.2782 46.3447 23.2945 46.3327 23.3065C46.3207 23.3185 46.3044 23.3253 46.2874 23.3253Z" fill="#008EDD"/>
<path d="M47.431 23.3252H46.8039C46.7873 23.3255 46.7712 23.3193 46.7592 23.3078C46.7472 23.2964 46.7403 23.2806 46.7398 23.264V21.2502C46.7403 21.2336 46.7472 21.2178 46.7592 21.2064C46.7712 21.1949 46.7873 21.1887 46.8039 21.189H47.431C47.4476 21.1887 47.4636 21.1949 47.4757 21.2064C47.4877 21.2178 47.4946 21.2336 47.495 21.2502V23.264C47.4946 23.2806 47.4877 23.2964 47.4757 23.3078C47.4636 23.3193 47.4476 23.3255 47.431 23.3252Z" fill="#008EDD"/>
<path d="M48.5746 23.3252H47.9475C47.9305 23.3252 47.9142 23.3184 47.9022 23.3064C47.8902 23.2944 47.8835 23.2781 47.8834 23.2611V20.6705C47.8835 20.6535 47.8902 20.6372 47.9022 20.6252C47.9142 20.6132 47.9305 20.6064 47.9475 20.6064H48.5746C48.5916 20.6064 48.6079 20.6132 48.6199 20.6252C48.6319 20.6372 48.6386 20.6535 48.6387 20.6705V23.2611C48.6386 23.2781 48.6319 23.2944 48.6199 23.3064C48.6079 23.3184 48.5916 23.3252 48.5746 23.3252Z" fill="#008EDD"/>
<path d="M43.6866 22.0737C43.7581 22.0737 43.8161 22.0157 43.8161 21.9442C43.8161 21.8727 43.7581 21.8148 43.6866 21.8148C43.6151 21.8148 43.5572 21.8727 43.5572 21.9442C43.5572 22.0157 43.6151 22.0737 43.6866 22.0737Z" fill="#3F3D56"/>
<path d="M44.8303 21.2323C44.9018 21.2323 44.9597 21.1743 44.9597 21.1028C44.9597 21.0313 44.9018 20.9734 44.8303 20.9734C44.7588 20.9734 44.7008 21.0313 44.7008 21.1028C44.7008 21.1743 44.7588 21.2323 44.8303 21.2323Z" fill="#3F3D56"/>
<path d="M45.9739 22.0737C46.0454 22.0737 46.1033 22.0157 46.1033 21.9442C46.1033 21.8727 46.0454 21.8148 45.9739 21.8148C45.9023 21.8148 45.8444 21.8727 45.8444 21.9442C45.8444 22.0157 45.9023 22.0737 45.9739 22.0737Z" fill="#3F3D56"/>
<path d="M47.1174 20.8222C47.1889 20.8222 47.2469 20.7642 47.2469 20.6927C47.2469 20.6212 47.1889 20.5633 47.1174 20.5633C47.0459 20.5633 46.988 20.6212 46.988 20.6927C46.988 20.7642 47.0459 20.8222 47.1174 20.8222Z" fill="#3F3D56"/>
<path d="M48.261 20.3475C48.3325 20.3475 48.3905 20.2895 48.3905 20.218C48.3905 20.1465 48.3325 20.0886 48.261 20.0886C48.1895 20.0886 48.1316 20.1465 48.1316 20.218C48.1316 20.2895 48.1895 20.3475 48.261 20.3475Z" fill="#3F3D56"/>
<path d="M45.9766 21.9732L44.8303 21.1146L43.6996 21.9614L43.6737 21.9269L44.8303 21.0606L45.9711 21.9152L47.1048 20.6745L47.1094 20.6727L48.253 20.2119L48.2691 20.2519L47.1301 20.7109L45.9766 21.9732Z" fill="#3F3D56"/>
<path d="M56.6563 29.2142H51.2076V23.2424H56.6563V29.2142Z" fill="white"/>
<path d="M56.6563 29.2142H51.2076V23.2424H56.6563V29.2142ZM51.2511 29.1706H56.6127V23.286H51.2511V29.1706Z" fill="#3F3D56"/>
<path d="M52.973 26.8932H51.9922V28.4624H52.973V26.8932Z" fill="#575A89"/>
<path d="M54.3896 25.8252H53.4089V28.4624H54.3896V25.8252Z" fill="#E6E6E6"/>
<path d="M55.8063 24.5828H54.8255V28.4623H55.8063V24.5828Z" fill="#008EDD"/>
<path d="M56.1332 28.506H51.7306V23.9508H51.7742V28.4624H56.1332V28.506Z" fill="#3F3D56"/>
</svg>
