<svg width="143" height="111" viewBox="0 0 143 111" fill="none" xmlns="http://www.w3.org/2000/svg">
<g clip-path="url(#clip0_18_775)">
<path d="M117.555 54.5139L123.539 48.1479L118.642 44.3688L116.223 49.5997L105.246 53.1459C104.876 52.9379 104.453 52.8397 104.027 52.8631C103.601 52.8866 103.191 53.0308 102.847 53.2782C102.503 53.5255 102.241 53.8653 102.091 54.2562C101.941 54.647 101.911 55.0719 102.004 55.4792C102.097 55.8865 102.31 56.2585 102.615 56.5498C102.921 56.8412 103.306 57.0393 103.725 57.1201C104.143 57.2008 104.577 57.1607 104.973 57.0046C105.369 56.8485 105.709 56.5832 105.954 56.2409L117.555 54.5139Z" fill="#FFB6B6"/>
<path d="M128.525 40.1306C129.609 42.496 122.992 49.2536 122.992 49.2536C121.182 50.685 120.895 54.2679 118.651 54.6668C112.6 55.7428 116.364 54.6168 114.8 55.2048C113.329 55.7581 114.684 51.0223 113.7 50.7213C113.137 50.5491 116.267 48.5692 116.267 48.5692C116.267 48.5692 119.088 43.159 120.823 40.3527C121.298 39.5504 121.973 38.8788 122.785 38.4003C123.598 37.9218 124.52 37.6521 125.468 37.6162C125.468 37.6162 127.44 37.7653 128.525 40.1306Z" fill="#E6E6E6"/>
<path d="M100.508 110.448H31.7473C30.1176 110.446 28.5551 109.812 27.4027 108.685C26.2503 107.558 25.6021 106.03 25.6002 104.436V6.91594C25.6021 5.3221 26.2503 3.79406 27.4027 2.66705C28.5551 1.54004 30.1176 0.906097 31.7473 0.904297H100.508C102.137 0.906097 103.7 1.54004 104.852 2.66705C106.005 3.79406 106.653 5.3221 106.655 6.91594V104.436C106.653 106.03 106.005 107.558 104.852 108.685C103.7 109.812 102.137 110.446 100.508 110.448Z" fill="#3F3D56"/>
<path d="M100.629 106.612H31.6263C31.1239 106.612 30.6423 106.416 30.287 106.069C29.9318 105.722 29.732 105.25 29.7314 104.759V6.59302C29.732 6.10171 29.9318 5.63068 30.287 5.28326C30.6423 4.93585 31.1239 4.74043 31.6263 4.73987H100.629C101.131 4.74043 101.613 4.93585 101.968 5.28326C102.323 5.63068 102.523 6.10171 102.523 6.59302V104.759C102.523 105.25 102.323 105.722 101.968 106.069C101.613 106.416 101.131 106.612 100.629 106.612Z" fill="white"/>
<path d="M34.9926 49.9107C35.1852 47.3529 35.5033 44.2084 38.091 42.8419C39.312 42.1971 40.605 42.4253 41.8326 42.9278C43.0188 43.4135 44.1363 43.9924 45.4139 44.2207C47.6163 44.5923 49.8824 44.26 51.8765 43.2729C53.8849 42.2962 55.4962 40.6835 56.4481 38.6972C56.9381 37.687 57.343 36.5922 58.0648 35.7105C58.428 35.2476 58.9095 34.8864 59.4608 34.6633C60.012 34.4402 60.6137 34.363 61.2051 34.4396C63.9185 34.7671 65.7191 37.0922 67.8822 38.461C68.9225 39.1192 70.1171 39.5998 71.3768 39.5409C72.6688 39.4805 73.84 38.8823 74.8302 38.1014C76.9312 36.4445 78.0799 33.8821 80.2848 32.3381C81.3302 31.6243 82.5433 31.1809 83.8111 31.0491C85.0789 30.9174 86.3602 31.1016 87.5356 31.5845C89.7954 32.5378 91.3954 34.6739 91.8181 37.0246C91.9193 37.6038 91.9455 38.1931 91.8959 38.7787C91.8683 39.124 92.4186 39.1222 92.4461 38.7787C92.5285 37.5604 92.322 36.3399 91.8424 35.2126C91.3629 34.0852 90.6234 33.0816 89.6817 32.2799C87.7309 30.6341 85.0055 30.0992 82.5267 30.7326C81.2645 31.0598 80.1044 31.6869 79.1496 32.5581C78.1298 33.4779 77.3254 34.5924 76.4646 35.6488C75.6247 36.6794 74.6982 37.6746 73.5195 38.3402C72.9551 38.6766 72.3226 38.8887 71.6659 38.9617C71.0092 39.0348 70.3441 38.967 69.717 38.7631C68.4445 38.3433 67.3665 37.4785 66.3485 36.6505C65.2991 35.797 64.2547 34.943 62.9934 34.4007C61.8206 33.8964 60.4756 33.6518 59.2548 34.1485C58.1541 34.5962 57.4256 35.5256 56.8857 36.5307C56.3376 37.551 55.9473 38.6512 55.3078 39.6241C54.6893 40.5554 53.8955 41.3633 52.9687 42.0049C51.0862 43.3204 48.7971 43.96 46.4881 43.8157C45.2335 43.7286 44.0929 43.3409 42.9569 42.833C41.703 42.2725 40.3824 41.6895 38.9717 41.961C37.7547 42.1953 36.7309 43.0039 36.02 43.9698C35.1993 45.0849 34.8387 46.4521 34.6505 47.7949C34.552 48.4973 34.4957 49.2039 34.4425 49.9107C34.4165 50.2561 34.9667 50.2545 34.9926 49.9107Z" fill="#E4E4E4"/>
<path d="M132.238 107.856L129.626 107.856L128.383 98.0022L132.238 98.0024L132.238 107.856Z" fill="#FFB6B6"/>
<path d="M132.168 107.021L129.381 105.914L129.299 105.881L127.76 107.021C126.915 107.021 126.103 107.34 125.493 107.911C124.883 108.483 124.522 109.262 124.485 110.087C124.481 110.133 124.481 110.18 124.481 110.228V110.333H132.904V107.021H132.168Z" fill="#2F2E41"/>
<path d="M126.12 105.479L123.656 106.327L119.14 97.4348L122.776 96.1835L126.12 105.479Z" fill="#FFB6B6"/>
<path d="M125.771 104.714L122.766 104.574L122.678 104.57L121.613 106.145C120.816 106.419 120.158 106.983 119.777 107.72C119.395 108.457 119.319 109.31 119.565 110.1C119.576 110.144 119.592 110.189 119.608 110.234L119.644 110.333L127.589 107.599L126.466 104.475L125.771 104.714Z" fill="#2F2E41"/>
<path d="M133.161 65.3687C135.551 65.2781 132.591 83.9032 132.591 83.9032C132.591 83.9032 133.457 100.255 133.273 101.113C133.089 101.972 133.25 104.286 133.25 104.286C132.782 103.453 127.951 104.082 127.951 104.082L127.294 87.5088L123.939 74.2301L119.287 83.131L123.745 96.7934C123.745 96.7934 125.551 98.4272 125.359 99.0729C125.167 99.7186 120.438 101.175 119.569 101.208C118.7 101.241 119.092 100.162 119.05 99.0994C119.008 98.037 114.918 88.1909 113.48 84.8408C112.042 81.4906 113.16 76.7668 113.894 73.3343C114.628 69.9018 118.491 63.4601 118.491 63.4601C123.286 58.1712 130.771 65.4593 133.161 65.3687Z" fill="#2F2E41"/>
<path d="M126.473 34.4241C128.991 34.4241 131.032 32.4283 131.032 29.9664C131.032 27.5044 128.991 25.5086 126.473 25.5086C123.956 25.5086 121.915 27.5044 121.915 29.9664C121.915 32.4283 123.956 34.4241 126.473 34.4241Z" fill="#FFB6B6"/>
<path d="M124.194 37.3704C123.212 37.9413 122.625 38.9904 122.288 40.0578C121.663 42.0341 121.287 44.0775 121.168 46.1427L119.871 58.4641L117.368 64.5305C122.722 64.076 134.594 66.2094 134.594 66.2094C134.594 66.2094 135.035 66.0656 134.594 65.6342C134.153 65.2028 133.724 65.585 134.165 65.1536C134.606 64.7222 134.302 65.2028 134.155 64.7714C134.008 64.34 134.155 64.6276 134.302 64.4838C134.449 64.34 133.164 63.0458 133.164 63.0458L134.34 55.489L135.81 40.2464C134.046 38.0894 130.497 36.8179 130.497 36.8179L129.58 35.2038L124.996 35.5625L124.194 37.3704Z" fill="#E6E6E6"/>
<path d="M137.537 54.4118L136.406 47.891L132.47 48.5886L132.815 54.2923L131.092 66.1648C130.691 66.3068 130.341 66.5598 130.084 66.8932C129.827 67.2265 129.675 67.6257 129.647 68.042C129.618 68.4584 129.713 68.874 129.922 69.2381C130.131 69.6021 130.443 69.899 130.821 70.0925C131.199 70.286 131.627 70.3677 132.051 70.3276C132.476 70.2876 132.88 70.1276 133.213 69.8671C133.546 69.6066 133.795 69.2568 133.929 68.8605C134.062 68.4642 134.075 68.0384 133.966 67.6351L137.537 54.4118Z" fill="#FFB6B6"/>
<path d="M134.285 39.1534C136.833 39.8706 137.836 49.1759 137.836 49.1759C138.99 53.6668 136.806 55.558 136.252 55.5383C134.677 55.4821 133.804 54.1637 132.934 54.7043C132.436 55.0135 132.343 51.4609 132.343 51.4609C132.343 51.4609 130.557 48.1556 129.486 45.0483C129.166 44.1754 129.078 43.2375 129.228 42.3221C129.379 41.4067 129.764 40.5435 130.348 39.8128C130.348 39.8128 131.738 38.4361 134.285 39.1534Z" fill="#E6E6E6"/>
<path d="M131.689 28.6041C131.674 27.88 131.59 26.9536 131.072 26.2148C130.634 25.5933 129.751 25.1007 128.928 25.347C128.938 25.1861 128.901 25.0258 128.823 24.884C128.744 24.7422 128.627 24.6244 128.485 24.5437C128.169 24.3859 127.821 24.3002 127.467 24.293C126.632 24.2168 125.767 24.1377 124.922 24.2945C123.973 24.4704 123.197 24.9483 122.793 25.6064L122.784 25.627L122.702 26.0169C122.691 26.0692 122.669 26.1185 122.636 26.1615C122.604 26.2046 122.562 26.2402 122.515 26.2661C122.467 26.2923 122.414 26.3079 122.359 26.3117C122.304 26.3155 122.249 26.3074 122.198 26.2881C122.142 26.2675 122.082 26.2617 122.023 26.271C121.964 26.2803 121.909 26.3045 121.862 26.3413C121.816 26.378 121.78 26.4259 121.758 26.4803C121.736 26.5348 121.729 26.5938 121.738 26.6516L121.761 26.807L121.522 26.763C121.463 26.7517 121.401 26.7562 121.343 26.776C121.286 26.7959 121.235 26.8304 121.196 26.8759C121.156 26.9215 121.13 26.9765 121.12 27.0353C121.11 27.094 121.116 27.1543 121.137 27.2101L121.203 27.3875C121.154 27.3881 121.105 27.3984 121.06 27.4178C121.015 27.4372 120.974 27.4653 120.941 27.5003C120.893 27.5514 120.862 27.6162 120.854 27.6852C120.846 27.7542 120.861 27.824 120.896 27.8844C121.163 28.3303 121.541 28.7025 121.996 28.9662C122.2 29.0866 122.421 29.1788 122.651 29.2403C122.699 29.2535 122.748 29.2652 122.799 29.2755C124.64 29.6633 126.537 29.719 128.398 29.4396C128.288 29.7987 128.246 30.1741 128.273 30.5478C128.289 30.7598 128.365 30.9633 128.491 31.1365C128.617 31.3096 128.789 31.4457 128.988 31.5299C129.073 31.558 129.16 31.5786 129.249 31.5915C129.334 31.605 129.418 31.6251 129.499 31.6516C129.62 31.6948 129.727 31.7684 129.809 31.8648C129.891 31.9613 129.946 32.0773 129.967 32.2011C129.989 32.3248 129.977 32.452 129.932 32.5697C129.887 32.6873 129.811 32.7914 129.712 32.8712C129.712 32.8712 130.105 33.1893 130.154 33.1732C130.347 33.0898 130.509 32.9493 130.616 32.7715C131.364 31.719 131.725 30.3177 131.689 28.6041Z" fill="#2F2E41"/>
<path d="M12.272 95.8397L11.7366 98.467C11.6962 98.6679 11.654 98.8723 11.6082 99.075C11.1606 98.9842 10.6966 99.0096 10.2622 99.1485C10.6068 99.6302 10.9157 100.135 11.1864 100.66C10.849 101.677 10.3539 102.617 9.52498 103.297C8.97138 103.74 8.31017 104.037 7.60513 104.159C6.90008 104.28 6.17499 104.221 5.49976 103.989L5.5236 103.885C4.63237 102.194 5.11649 100.061 6.22412 98.4993C6.78905 97.7287 7.4584 97.0367 8.2138 96.4422C8.96199 95.8325 9.77071 95.2855 10.5721 94.7457C10.7521 94.6246 10.9649 94.5588 11.1833 94.5566C11.4017 94.5545 11.6159 94.616 11.7983 94.7334C11.9808 94.8509 12.1234 95.0188 12.2077 95.2159C12.2921 95.4129 12.3145 95.6301 12.272 95.8397Z" fill="#E4E4E4"/>
<path d="M5.69041 110.311C5.46503 108.705 5.23324 107.079 5.39132 105.456C5.53179 104.015 5.98125 102.607 6.89669 101.453C7.38257 100.841 7.97379 100.318 8.64377 99.9047C8.81853 99.7971 8.97917 100.068 8.80532 100.175C7.64612 100.891 6.74951 101.949 6.24477 103.196C5.68729 104.583 5.5978 106.095 5.69463 107.568C5.75276 108.458 5.87581 109.343 5.99996 110.227C6.00995 110.267 6.00394 110.309 5.98314 110.345C5.96235 110.381 5.92835 110.408 5.8881 110.42C5.84715 110.431 5.8035 110.425 5.76662 110.405C5.72975 110.384 5.70262 110.35 5.69114 110.31L5.69041 110.311Z" fill="#F2F2F2"/>
<path d="M65.866 3.25677C66.1548 3.25677 66.3889 3.0278 66.3889 2.74536C66.3889 2.46291 66.1548 2.23395 65.866 2.23395C65.5772 2.23395 65.343 2.46291 65.343 2.74536C65.343 3.0278 65.5772 3.25677 65.866 3.25677Z" fill="white"/>
<path d="M96.4398 50.0859H34.4126C34.3611 50.0859 34.3117 50.0659 34.2753 50.0303C34.2389 49.9947 34.2185 49.9464 34.2185 49.896L34.3127 49.6848L96.4398 49.7062C96.4913 49.706 96.5407 49.7258 96.5773 49.7613C96.6138 49.7968 96.6344 49.845 96.6346 49.8953C96.6348 49.9457 96.6146 49.994 96.5783 50.0298C96.542 50.0655 96.4927 50.0857 96.4412 50.0859L96.4398 50.0859Z" fill="#3F3D56"/>
<path d="M46.2112 48.7578H45.8305V49.8187H46.2112V48.7578Z" fill="#3F3D56"/>
<path d="M57.6095 42.6602H57.2288V49.8187H57.6095V42.6602Z" fill="#3F3D56"/>
<path d="M69.0313 34.0519H68.6506V49.8187H69.0313V34.0519Z" fill="#3F3D56"/>
<path d="M80.4531 26.6989H80.0724V49.8187H80.4531V26.6989Z" fill="#3F3D56"/>
<path d="M91.8749 43.5569H91.4941V49.8187H91.8749V43.5569Z" fill="#3F3D56"/>
<path d="M80.2862 25.4103C80.9294 25.4103 81.4509 24.9004 81.4509 24.2713C81.4509 23.6422 80.9294 23.1323 80.2862 23.1323C79.6429 23.1323 79.1215 23.6422 79.1215 24.2713C79.1215 24.9004 79.6429 25.4103 80.2862 25.4103Z" fill="#008EDD"/>
<path d="M69.0478 32.0919C69.691 32.0919 70.2125 31.5819 70.2125 30.9528C70.2125 30.3238 69.691 29.8138 69.0478 29.8138C68.4045 29.8138 67.8831 30.3238 67.8831 30.9528C67.8831 31.5819 68.4045 32.0919 69.0478 32.0919Z" fill="#008EDD"/>
<path d="M91.708 42.5978C92.3512 42.5978 92.8727 42.0879 92.8727 41.4588C92.8727 40.8297 92.3512 40.3198 91.708 40.3198C91.0647 40.3198 90.5433 40.8297 90.5433 41.4588C90.5433 42.0879 91.0647 42.5978 91.708 42.5978Z" fill="#008EDD"/>
<path d="M57.1151 89.5898V76.1502C57.1151 75.9779 57.3201 75.8381 57.573 75.8381H59.6162C59.8691 75.8381 60.0741 75.9779 60.0741 76.1502V89.6248L57.1151 89.5898Z" fill="#3F3D56"/>
<path d="M63.8636 89.6349V79.3662C63.8636 79.2005 64.0686 79.0663 64.3215 79.0663H66.3648C66.6176 79.0663 66.8226 79.2005 66.8226 79.3662V89.6128L63.8636 89.6349Z" fill="#3F3D56"/>
<path d="M77.3607 89.6111V84.3884C77.3428 84.3259 77.5471 84.2718 77.8186 84.2671H79.8618C80.1333 84.2718 80.3376 84.3259 80.3197 84.3884V89.6248L77.3607 89.6111Z" fill="#3F3D56"/>
<path d="M50.3665 89.6111V84.3884C50.3665 84.3214 50.5715 84.2671 50.8244 84.2671H52.8676C53.1205 84.2671 53.3255 84.3215 53.3255 84.3884V89.6248L50.3665 89.6111Z" fill="#3F3D56"/>
<path d="M70.6121 89.559V64.3391C70.6121 64.0156 70.8171 63.7534 71.07 63.7534H73.1132C73.3661 63.7534 73.5711 64.0156 73.5711 64.3391V89.6248L70.6121 89.559Z" fill="#008EDD"/>
<path d="M89.1256 89.857H42.9136C42.8649 89.857 42.8183 89.8381 42.7839 89.8044C42.7495 89.7708 42.7302 89.7252 42.7302 89.6776C42.7302 89.6301 42.7495 89.5845 42.7839 89.5508C42.8183 89.5172 42.8649 89.4983 42.9136 89.4983H89.1256C89.1743 89.4983 89.2209 89.5172 89.2553 89.5508C89.2897 89.5845 89.309 89.6301 89.309 89.6776C89.309 89.7252 89.2897 89.7708 89.2553 89.8044C89.2209 89.8381 89.1743 89.857 89.1256 89.857Z" fill="#3F3D56"/>
<path d="M142.326 110.66H0.939485C0.890849 110.66 0.844205 110.641 0.809814 110.608C0.775424 110.574 0.756104 110.529 0.756104 110.481C0.756104 110.433 0.775424 110.388 0.809814 110.354C0.844205 110.321 0.890849 110.302 0.939485 110.302H142.326C142.375 110.302 142.422 110.321 142.456 110.354C142.49 110.388 142.51 110.433 142.51 110.481C142.51 110.529 142.49 110.574 142.456 110.608C142.422 110.641 142.375 110.66 142.326 110.66Z" fill="#CACACA"/>
<path d="M46.073 47.5784C46.7163 47.5784 47.2377 47.0684 47.2377 46.4394C47.2377 45.8103 46.7163 45.3003 46.073 45.3003C45.4298 45.3003 44.9083 45.8103 44.9083 46.4394C44.9083 47.0684 45.4298 47.5784 46.073 47.5784Z" fill="#008EDD"/>
<path d="M57.4427 41.3015C58.0859 41.3015 58.6074 40.7915 58.6074 40.1625C58.6074 39.5334 58.0859 39.0234 57.4427 39.0234C56.7994 39.0234 56.278 39.5334 56.278 40.1625C56.278 40.7915 56.7994 41.3015 57.4427 41.3015Z" fill="#008EDD"/>
</g>
<defs>
<clipPath id="clip0_18_775">
<rect width="141.754" height="109.756" fill="white" transform="translate(0.756104 0.904297)"/>
</clipPath>
</defs>
</svg>
