<svg width="1280" height="550" viewBox="0 0 1280 550" fill="none" xmlns="http://www.w3.org/2000/svg">
<path d="M0 305.5L35.5556 336.05C71.1111 366.6 142.222 427.7 213.333 437.82C284.444 448.703 355.556 406.697 426.667 346.17C497.778 284.497 568.889 204.303 640 152.75C711.111 101.197 782.222 82.1031 853.333 132.32C924.444 183.3 995.556 305.5 1066.67 295.38C1137.78 284.497 1208.89 143.203 1244.44 71.2197L1280 0V549.9H1244.44C1208.89 549.9 1137.78 549.9 1066.67 549.9C995.556 549.9 924.444 549.9 853.333 549.9C782.222 549.9 711.111 549.9 640 549.9C568.889 549.9 497.778 549.9 426.667 549.9C355.556 549.9 284.444 549.9 213.333 549.9C142.222 549.9 71.1111 549.9 35.5556 549.9H0V305.5Z" fill="white"/>
</svg>
