<svg width="15" height="15" viewBox="0 0 15 15" fill="none" xmlns="http://www.w3.org/2000/svg">
<mask id="mask0_51_1259" style="mask-type:alpha" maskUnits="userSpaceOnUse" x="0" y="0" width="15" height="15">
<rect width="15" height="15" fill="#D9D9D9"/>
</mask>
<g mask="url(#mask0_51_1259)">
<path d="M7.5 13.125C7.0625 13.125 6.69271 12.974 6.39062 12.6719C6.08854 12.3698 5.9375 12 5.9375 11.5625C5.9375 11.125 6.08854 10.7552 6.39062 10.4531C6.69271 10.151 7.0625 10 7.5 10C7.9375 10 8.30729 10.151 8.60938 10.4531C8.91146 10.7552 9.0625 11.125 9.0625 11.5625C9.0625 12 8.91146 12.3698 8.60938 12.6719C8.30729 12.974 7.9375 13.125 7.5 13.125ZM3.96875 9.59375L2.65625 8.25C3.27083 7.63542 3.99219 7.14844 4.82031 6.78906C5.64844 6.42969 6.54167 6.25 7.5 6.25C8.45833 6.25 9.35156 6.43229 10.1797 6.79688C11.0078 7.16146 11.7292 7.65625 12.3438 8.28125L11.0312 9.59375C10.5729 9.13542 10.0417 8.77604 9.4375 8.51562C8.83333 8.25521 8.1875 8.125 7.5 8.125C6.8125 8.125 6.16667 8.25521 5.5625 8.51562C4.95833 8.77604 4.42708 9.13542 3.96875 9.59375ZM1.3125 6.9375L0 5.625C0.958333 4.64583 2.07812 3.88021 3.35938 3.32812C4.64062 2.77604 6.02083 2.5 7.5 2.5C8.97917 2.5 10.3594 2.77604 11.6406 3.32812C12.9219 3.88021 14.0417 4.64583 15 5.625L13.6875 6.9375C12.8854 6.13542 11.9557 5.50781 10.8984 5.05469C9.84115 4.60156 8.70833 4.375 7.5 4.375C6.29167 4.375 5.15885 4.60156 4.10156 5.05469C3.04427 5.50781 2.11458 6.13542 1.3125 6.9375Z" fill="#4CAF50"/>
</g>
</svg>
