<svg width="15" height="15" viewBox="0 0 15 15" fill="none" xmlns="http://www.w3.org/2000/svg">
<mask id="mask0_55_559" style="mask-type:alpha" maskUnits="userSpaceOnUse" x="0" y="0" width="15" height="15">
<rect width="15" height="15" fill="#D9D9D9"/>
</mask>
<g mask="url(#mask0_55_559)">
<path d="M12.3438 14.125L6.46875 8.21875C5.97917 8.33333 5.52344 8.50521 5.10156 8.73438C4.67969 8.96354 4.30208 9.25 3.96875 9.59375L2.65625 8.25C2.98958 7.91667 3.34896 7.625 3.73438 7.375C4.11979 7.125 4.53125 6.90625 4.96875 6.71875L3.5625 5.3125C3.13542 5.53125 2.73698 5.77344 2.36719 6.03906C1.9974 6.30469 1.64583 6.60417 1.3125 6.9375L0 5.59375C0.333333 5.26042 0.679688 4.96094 1.03906 4.69531C1.39844 4.42969 1.78125 4.17708 2.1875 3.9375L0.875 2.625L1.75 1.75L13.25 13.25L12.3438 14.125ZM7.5 13.125C7.0625 13.125 6.69271 12.9714 6.39062 12.6641C6.08854 12.3568 5.9375 11.9896 5.9375 11.5625C5.9375 11.125 6.08854 10.7552 6.39062 10.4531C6.69271 10.151 7.0625 10 7.5 10C7.9375 10 8.30729 10.151 8.60938 10.4531C8.91146 10.7552 9.0625 11.125 9.0625 11.5625C9.0625 11.9896 8.91146 12.3568 8.60938 12.6641C8.30729 12.9714 7.9375 13.125 7.5 13.125ZM11.1875 9.40625L8.03125 6.25C8.875 6.33333 9.66406 6.54688 10.3984 6.89062C11.1328 7.23438 11.7812 7.6875 12.3438 8.25L11.1875 9.40625ZM13.6875 6.9375C12.8854 6.13542 11.9557 5.50781 10.8984 5.05469C9.84115 4.60156 8.70833 4.375 7.5 4.375C7.28125 4.375 7.07031 4.38281 6.86719 4.39844C6.66406 4.41406 6.45833 4.4375 6.25 4.46875L4.65625 2.875C5.11458 2.75 5.58073 2.65625 6.05469 2.59375C6.52865 2.53125 7.01042 2.5 7.5 2.5C8.97917 2.5 10.3594 2.77604 11.6406 3.32813C12.9219 3.88021 14.0417 4.63542 15 5.59375L13.6875 6.9375Z" fill="#F44336"/>
</g>
</svg>
