<svg width="18" height="18" viewBox="0 0 18 18" fill="none" xmlns="http://www.w3.org/2000/svg">
<mask id="mask0_85_724" style="mask-type:alpha" maskUnits="userSpaceOnUse" x="0" y="0" width="18" height="18">
<rect width="18" height="18" fill="#D9D9D9"/>
</mask>
<g mask="url(#mask0_85_724)">
<path d="M3.75 16.5C3.3375 16.5 2.98438 16.3531 2.69063 16.0594C2.39688 15.7656 2.25 15.4125 2.25 15H3.75V16.5ZM2.25 13.875V12.375H3.75V13.875H2.25ZM2.25 11.25V9.75H3.75V11.25H2.25ZM2.25 8.625V7.125H3.75V8.625H2.25ZM2.25 6C2.25 5.5875 2.39688 5.23438 2.69063 4.94063C2.98438 4.64688 3.3375 4.5 3.75 4.5V6H2.25ZM4.875 16.5V15H6.375V16.5H4.875ZM6.75 13.5C6.3375 13.5 5.98438 13.3531 5.69063 13.0594C5.39688 12.7656 5.25 12.4125 5.25 12V3C5.25 2.5875 5.39688 2.23438 5.69063 1.94063C5.98438 1.64688 6.3375 1.5 6.75 1.5H13.5C13.9125 1.5 14.2656 1.64688 14.5594 1.94063C14.8531 2.23438 15 2.5875 15 3V12C15 12.4125 14.8531 12.7656 14.5594 13.0594C14.2656 13.3531 13.9125 13.5 13.5 13.5H6.75ZM6.75 12H13.5V3H6.75V12ZM7.5 16.5V15H9V16.5H7.5ZM10.125 16.5V15H11.625C11.625 15.4125 11.4781 15.7656 11.1844 16.0594C10.8906 16.3531 10.5375 16.5 10.125 16.5Z" fill="#008EDD"/>
</g>
</svg>
